<svg width="50" height="50" viewBox="0 0 50 50" fill="none" xmlns="http://www.w3.org/2000/svg">
<path d="M25 0.633057C11.1875 0.633057 0 11.8268 0 25.6331C0 36.681 7.1625 46.0497 17.0938 49.3518C18.3438 49.5872 18.8021 48.8143 18.8021 48.1497C18.8021 47.556 18.7812 45.9831 18.7708 43.8997C11.8167 45.4081 10.35 40.5456 10.35 40.5456C9.2125 37.6601 7.56875 36.8893 7.56875 36.8893C5.30417 35.3393 7.74375 35.3706 7.74375 35.3706C10.2542 35.5456 11.5729 37.9456 11.5729 37.9456C13.8021 41.7685 17.425 40.6643 18.8542 40.0247C19.0792 38.4081 19.7229 37.306 20.4375 36.681C14.8854 36.056 9.05 33.906 9.05 24.3268C9.05 21.5976 10.0187 19.3685 11.6229 17.6185C11.3417 16.9872 10.4979 14.4456 11.8417 11.0018C11.8417 11.0018 13.9354 10.331 18.7167 13.5643C20.7167 13.0081 22.8417 12.7331 24.9667 12.7206C27.0917 12.7331 29.2167 13.0081 31.2167 13.5643C35.9667 10.331 38.0604 11.0018 38.0604 11.0018C39.4042 14.4456 38.5604 16.9872 38.3104 17.6185C39.9042 19.3685 40.8729 21.5976 40.8729 24.3268C40.8729 33.931 35.0292 36.0456 29.4667 36.6601C30.3417 37.4101 31.1542 38.9435 31.1542 41.2851C31.1542 44.631 31.1229 47.3185 31.1229 48.131C31.1229 48.7872 31.5604 49.5685 32.8417 49.3185C42.8438 46.0393 50 36.6643 50 25.6331C50 11.8268 38.8062 0.633057 25 0.633057Z" fill="white"/>
</svg>
