<svg width="50" height="51" viewBox="0 0 50 51" fill="none" xmlns="http://www.w3.org/2000/svg">
<path d="M14.6461 0.188708C11.9861 0.314125 10.1696 0.73871 8.58146 1.36246C6.93812 2.00309 5.54499 2.86247 4.15894 4.25352C2.7731 5.64457 1.91935 7.03853 1.28351 8.68479C0.66809 10.276 0.251005 12.0942 0.133504 14.7557C0.0160034 17.4171 -0.0100384 18.2728 0.00308666 25.062C0.0160034 31.8507 0.0460035 32.7018 0.174962 35.3689C0.302046 38.0283 0.724965 39.8443 1.34893 41.4329C1.9906 43.0764 2.84893 44.4689 4.24061 45.8554C5.63207 47.2419 7.025 48.0935 8.675 48.7304C10.265 49.345 12.0836 49.764 14.7446 49.8804C17.4057 49.9971 18.2621 50.0242 25.0492 50.011C31.8364 49.9981 32.691 49.9679 35.3572 49.8414C38.0239 49.715 39.8302 49.289 41.4193 48.6679C43.0629 48.025 44.4564 47.1679 45.8419 45.776C47.2273 44.3839 48.0804 42.9889 48.7158 41.3418C49.3319 39.7518 49.7504 37.9335 49.8658 35.2743C49.9825 32.6057 50.01 31.7539 49.9971 24.9659C49.984 18.1778 49.9533 17.3267 49.8269 14.6607C49.7004 11.9946 49.2769 10.1842 48.6533 8.59458C48.0108 6.95103 47.1533 5.55957 45.7625 4.17206C44.3714 2.78455 42.9752 1.93205 41.3289 1.29809C39.7377 0.68246 37.9204 0.263083 35.2593 0.148082C32.5982 0.0330819 31.7418 0.00329014 24.9522 0.0166235C18.1626 0.0295403 17.3125 0.0587071 14.6461 0.188708ZM14.9382 45.3829C12.5006 45.2768 11.1771 44.8718 10.295 44.5329C9.12709 44.0829 8.295 43.5389 7.41604 42.6683C6.53687 41.7979 5.99707 40.9629 5.54103 39.7974C5.19853 38.9154 4.78603 37.5933 4.67207 35.1558C4.54811 32.5214 4.52207 31.7303 4.50748 25.0557C4.4929 18.3813 4.51853 17.5911 4.63394 14.9557C4.73811 12.5202 5.14561 11.1952 5.48395 10.3135C5.93395 9.14417 6.47603 8.31354 7.34854 7.4352C8.22104 6.55666 9.05355 6.01561 10.22 5.55957C11.1013 5.21561 12.4231 4.80665 14.8596 4.6906C17.4961 4.5656 18.2861 4.5406 24.9597 4.52602C31.6332 4.51144 32.4253 4.53644 35.0628 4.65269C37.4983 4.75852 38.8239 5.16207 39.7045 5.50269C40.8729 5.95269 41.7045 6.49311 42.5829 7.36728C43.4614 8.24104 44.0029 9.07063 44.4589 10.2396C44.8033 11.1181 45.2125 12.4396 45.3275 14.8777C45.4529 17.5142 45.4814 18.3048 45.4933 24.9778C45.5054 31.6507 45.4818 32.4432 45.3662 35.0778C45.26 37.5154 44.8558 38.8393 44.5162 39.7224C44.0662 40.8899 43.5239 41.7225 42.6508 42.6004C41.7779 43.4785 40.9464 44.0193 39.7793 44.4754C38.8993 44.8189 37.5758 45.2289 35.1414 45.345C32.5047 45.4689 31.7147 45.495 25.0386 45.5096C18.3626 45.5241 17.5746 45.4971 14.9382 45.3829ZM35.3189 11.6521C35.3199 12.2455 35.4968 12.8253 35.8273 13.3181C36.1579 13.8109 36.6271 14.1947 37.1758 14.4208C37.7244 14.6469 38.3277 14.7052 38.9095 14.5884C39.4913 14.4716 40.0254 14.1848 40.4442 13.7644C40.863 13.3441 41.1477 12.8089 41.2624 12.2267C41.377 11.6445 41.3164 11.0413 41.0883 10.4936C40.8601 9.94577 40.4746 9.47796 39.9805 9.14929C39.4865 8.82062 38.906 8.64585 38.3126 8.64708C37.5172 8.64874 36.755 8.96623 36.1936 9.52974C35.6322 10.0933 35.3176 10.8567 35.3189 11.6521ZM12.1636 25.0388C12.1775 32.1289 17.9357 37.8633 25.024 37.8499C32.1128 37.8364 37.8512 32.0789 37.8379 24.9888C37.8243 17.8988 32.0649 12.1627 24.9753 12.1767C17.8857 12.1906 12.1502 17.9496 12.1636 25.0388ZM16.6667 25.0299C16.6635 23.3817 17.149 21.7696 18.062 20.3974C18.9749 19.0251 20.2743 17.9545 21.7958 17.3207C23.3172 16.687 24.9925 16.5186 26.6096 16.837C28.2268 17.1553 29.7132 17.946 30.8809 19.1091C32.0487 20.2723 32.8453 21.7555 33.1701 23.3714C33.4948 24.9873 33.3331 26.6631 32.7054 28.1871C32.0778 29.7111 31.0123 31.0147 29.6437 31.9331C28.2751 32.8515 26.6649 33.3435 25.0168 33.3468C23.9223 33.3491 22.8382 33.1358 21.8263 32.719C20.8143 32.3023 19.8944 31.6903 19.119 30.918C18.3436 30.1456 17.7279 29.2281 17.3071 28.2178C16.8864 27.2076 16.6688 26.1243 16.6667 25.0299Z" fill="white"/>
</svg>
