<svg width="50" height="51" viewBox="0 0 50 51" fill="none" xmlns="http://www.w3.org/2000/svg">
<path d="M23.5421 0.0126953C17.5228 0.355427 11.8309 2.86481 7.51762 7.07735C3.20437 11.2899 0.561218 16.921 0.0763854 22.9305C-0.0254618 24.3176 -0.0254618 25.7103 0.0763854 27.0974C0.56272 33.116 3.21387 38.7545 7.53875 42.9683C11.8636 47.182 17.5691 49.6856 23.5984 50.0152H26.4027C32.5465 49.6438 38.3396 47.0275 42.6804 42.6637C47.0211 38.2999 49.6067 32.4931 49.9456 26.3473C50.0182 25.1679 50.0182 23.985 49.9456 22.8055C49.4022 16.8166 46.7271 11.2216 42.4068 7.03861C38.0865 2.85558 32.4082 0.362419 26.4048 0.0126953L23.5421 0.0126953ZM31.2509 13.5759L37.4803 17.2011C37.4803 17.2011 24.8464 23.9514 24.8047 23.9514C24.763 23.9514 12.1082 17.2427 12.0832 17.2219L18.3211 13.5342L24.5547 9.86736L31.2509 13.5759ZM17.7585 24.2556L22.9171 27.0974V39.4313L17.6523 36.5145L12.527 33.5352V21.5346L17.7585 24.2556ZM37.4699 27.5307V33.6227L32.2926 36.627L27.084 39.6334V27.0828L32.2697 24.2806L37.4783 21.4575L37.4699 27.5307Z" fill="white"/>
</svg>
