<svg width="50" height="50" viewBox="0 0 50 50" fill="none" xmlns="http://www.w3.org/2000/svg">
<path d="M36.0948 49.7319C35.8689 49.7306 32.9272 49.7251 29.6331 49.7196C27.8936 49.7167 26.2744 49.6864 25.0013 49.6369C24.3648 49.6121 23.8158 49.5826 23.3702 49.548C22.9246 49.5134 22.6568 49.5043 22.2445 49.3969C21.749 49.2678 21.3214 49.2922 20.6917 48.6789C20.3769 48.3722 20.1775 47.8927 20.1251 47.5758C20.0727 47.2589 20.0886 47.0604 20.0953 46.8737C20.1187 46.2188 20.3046 45.8444 20.5191 45.3851C20.7337 44.9259 21.0102 44.4495 21.3372 43.9716C21.7828 43.3205 21.9684 42.8973 22.0238 42.6469C22.0792 42.3965 22.0759 42.2623 21.9347 41.8717C21.8059 41.5157 21.6398 41.3149 21.2142 41.0941C20.7885 40.8734 20.0737 40.692 19.0699 40.6708C17.7079 40.642 16.7685 40.8262 16.252 41.0695C15.7356 41.3127 15.5801 41.5044 15.4364 41.9874C15.2597 42.5811 15.2722 42.8447 15.3722 43.1454C15.4721 43.4461 15.7448 43.8811 16.3858 44.5058C17.0009 45.1052 17.3492 45.9894 17.4161 46.8239C17.4501 47.2474 17.604 47.7128 17.1619 48.4711C16.9409 48.8502 16.5659 49.1251 16.3006 49.2526C16.0354 49.3801 15.8471 49.4251 15.6676 49.4726C15.0961 49.6236 14.9955 49.5707 14.5628 49.5922C14.1302 49.6137 13.5801 49.6312 12.9444 49.6456C11.673 49.6746 10.0641 49.6909 8.46931 49.6942C6.87451 49.6975 5.29668 49.6877 4.08552 49.664C3.47994 49.6521 2.96851 49.6369 2.57576 49.6166C2.37938 49.6065 2.21561 49.5957 2.05989 49.5793C1.98203 49.571 1.9089 49.5627 1.80598 49.5431C1.70306 49.5236 1.66515 49.6372 1.14045 49.2697C0.73573 48.9862 0.68078 48.781 0.620188 48.6552C0.559598 48.5294 0.537672 48.454 0.519114 48.391C0.482001 48.2649 0.469836 48.1909 0.457103 48.1159C0.431637 47.9658 0.416499 47.8285 0.400707 47.664C0.369119 47.3349 0.341226 46.9156 0.313792 46.4108C0.258924 45.4012 0.208623 44.0631 0.169261 42.642C0.0905367 39.7997 0.0510355 36.6904 0.124583 35.1669C0.148776 34.6658 0.202524 34.1851 0.279857 33.7599C0.318523 33.5473 0.361419 33.3508 0.423899 33.1466C0.486379 32.9425 0.474804 32.7647 0.848216 32.3358C1.21262 31.9173 1.78664 31.6528 2.2801 31.6012C2.77356 31.5496 3.19135 31.6447 3.57161 31.7797C4.33213 32.0497 5.00426 32.5094 5.74568 33.13C7.00767 34.1864 7.30688 34.2459 8.17634 34.017C9.13359 33.765 9.99857 32.7923 10.3924 31.431C10.7863 30.0698 10.631 28.4856 9.88972 27.3961C9.50652 26.8329 8.7947 26.2604 8.11726 25.9506C7.51555 25.6754 7.04484 25.6871 6.9344 25.6915C6.84435 25.7532 6.70753 25.8437 6.59041 25.9547C6.32894 26.2026 6.00337 26.5446 5.71492 26.8832C4.78098 27.9795 4.11046 28.8724 2.62068 28.9542C1.87579 28.9951 1.03053 28.5111 0.651683 27.9633C0.272833 27.4155 0.141742 26.8703 0.0488992 26.2726C-0.0166246 25.8508 0.00299668 25.6463 0.00202418 25.2089C0.00102418 24.7714 0.00829918 24.2199 0.0218004 23.587C0.0487905 22.3214 0.100742 20.7345 0.163646 19.1679C0.226549 17.6013 0.300294 16.0575 0.371653 14.8754C0.407333 14.2843 0.441997 13.7859 0.476389 13.4049C0.493586 13.2144 0.509834 13.0561 0.530833 12.9071C0.541333 12.8326 0.551902 12.7629 0.573313 12.6659C0.594726 12.5688 0.480453 12.545 0.849681 12.0319C1.18511 11.5657 1.40042 11.5487 1.5262 11.4962C1.65197 11.4437 1.72162 11.4275 1.7801 11.4132C1.89707 11.3846 1.96213 11.3766 2.02864 11.3678C2.16164 11.3502 2.28188 11.3408 2.42683 11.3312C2.71674 11.312 3.08793 11.2969 3.5384 11.2845C4.43936 11.2598 5.64619 11.2467 6.96223 11.2501C10.1404 11.2584 12.0446 11.2305 13.1927 11.132C14.3409 11.0334 14.6031 10.9258 14.9827 10.7052C15.659 10.3122 15.6805 10.1673 15.693 9.94812C15.7054 9.72897 15.538 9.07756 14.8021 8.10828C14.3563 7.52116 14.0351 7.07911 13.7911 6.54236C13.5471 6.0056 13.4521 5.4336 13.4178 4.91346C13.5573 3.19878 13.9643 1.9214 15.3045 1.04871C15.8019 0.724773 16.1419 0.646394 16.6114 0.507206C17.0809 0.368019 17.6044 0.24442 18.1258 0.15662H18.1261C21.1745 -0.356393 24.0892 0.367119 25.422 2.67908C25.8443 3.41176 26.0496 4.37765 25.868 5.26087C25.6864 6.14408 25.2413 6.89662 24.6429 7.71033C23.7159 8.97089 23.4933 10.229 23.4657 10.0631V10.0634C23.49 10.2108 23.5021 10.2829 23.8209 10.4965C24.1398 10.7102 24.7773 10.9666 25.7137 11.1347C25.4811 11.0929 25.8369 11.1426 26.1649 11.1574C26.4928 11.1721 26.9416 11.1875 27.4654 11.2023C28.5131 11.2319 29.8641 11.2595 31.2125 11.2804C32.5609 11.3013 33.9085 11.3155 34.9493 11.3182C35.4697 11.3196 35.9143 11.3183 36.2367 11.3136C36.5591 11.309 36.948 11.2591 36.6468 11.3082C37.2631 11.2077 37.8945 11.592 38.1134 11.8473C38.3322 12.1026 38.3801 12.264 38.4252 12.389C38.5153 12.6391 38.5303 12.7788 38.5528 12.9401C38.5978 13.2625 38.6193 13.6196 38.6376 14.1019C38.6741 15.0665 38.683 16.4923 38.6705 18.4943C38.6495 21.8654 38.7809 23.9861 39.0516 25.09C39.3224 26.1939 39.3533 26.1251 39.8648 26.2887C40.1587 26.3827 40.1122 26.3873 40.3927 26.2919C40.6731 26.1964 41.2516 25.881 42.152 25.2516C43.0525 24.6221 43.8472 24.1538 44.8172 24.0128C45.7873 23.8719 46.7491 24.1941 47.5233 24.6559C49.0567 25.5706 49.7098 27.351 49.9369 29.5773C50.1663 31.8265 49.787 33.9506 48.526 35.4828C47.9118 36.2291 46.8958 36.7942 45.8861 36.9589C45.3457 37.047 44.6191 37.1162 43.933 36.8656C43.2468 36.6151 42.7681 36.2563 41.8968 35.6649C40.9023 34.99 40.2695 34.7192 40.0516 34.6808C39.8337 34.6424 39.9269 34.5992 39.5606 34.8798C39.1214 35.2163 39.0338 35.2485 38.8324 36.4972C38.6309 37.7459 38.5492 40.0077 38.5309 43.8207C38.5254 44.9508 38.4994 45.9943 38.4605 46.789C38.4411 47.1863 38.4192 47.5177 38.3907 47.7924C38.3765 47.9297 38.3626 48.0485 38.3353 48.1913C38.3216 48.2627 38.3072 48.3376 38.2669 48.4606C38.2267 48.5836 38.2888 48.7557 37.7884 49.1903C37.3275 49.5908 37.1066 49.5834 36.8585 49.643C36.6104 49.7026 36.371 49.7332 36.0948 49.7319ZM36.0597 46.6132C36.0623 46.6132 36.1079 46.6132 36.1102 46.6132C36.0965 46.6131 36.1376 46.6087 36.13 46.6106C36.1261 46.6118 36.1143 46.5935 36.0597 46.6132ZM35.346 46.6117C35.3812 45.8853 35.407 44.887 35.4122 43.8056C35.4307 39.9614 35.4856 37.6614 35.7535 36.0006C36.0214 34.3399 36.736 33.1149 37.6642 32.404C38.4271 31.8195 39.542 31.4245 40.5926 31.6095C41.6433 31.7946 42.5257 32.3227 43.648 33.0844C44.9559 34.0269 45.5294 34.2301 46.118 33.5011C46.6016 32.9136 47.0029 31.5467 46.8343 29.8937C46.6478 28.0644 46.2795 27.5454 45.9256 27.3344C45.4711 27.0632 45.4165 27.0774 45.2657 27.0993C45.115 27.1212 44.6845 27.2865 43.9388 27.8078C42.9566 28.4944 42.2184 28.9648 41.3973 29.2443C40.5762 29.5237 39.6433 29.4924 38.9144 29.2592C37.5662 28.8278 36.4367 27.5213 36.0226 25.8329C35.6084 24.1445 35.5304 21.918 35.5519 18.4747C35.5636 16.5922 35.5515 15.3081 35.5226 14.4347C35.3226 14.4352 35.1711 14.4375 34.9408 14.4369C33.879 14.4341 32.5229 14.4199 31.1642 14.3988C29.8054 14.3778 28.4456 14.3499 27.3773 14.3197C26.8431 14.3046 26.3828 14.2889 26.0247 14.2728C25.6667 14.2567 25.56 14.2757 25.1629 14.2045C23.9591 13.9885 22.9378 13.6589 22.0848 13.0873C21.2318 12.5157 20.5584 11.6031 20.3883 10.5702C20.0998 8.81919 20.9652 7.44723 22.1305 5.86267C22.5976 5.22752 22.7776 4.80648 22.8133 4.63296C22.849 4.45944 22.8635 4.48562 22.7201 4.23671C22.2596 3.43803 20.9346 2.84662 18.6439 3.23207H18.6436C18.2644 3.29594 17.8362 3.39684 17.4976 3.49721C17.159 3.59761 16.8347 3.774 17.0067 3.66201C16.3665 4.1671 16.3344 4.59678 16.6302 5.25185C16.6933 5.3907 16.8778 5.68467 17.286 6.2223C18.2481 7.48951 18.8858 8.73362 18.8067 10.1251C18.7276 11.5166 17.7612 12.6978 16.5499 13.4017C15.7915 13.8425 14.8372 14.1212 13.4595 14.2394C12.0819 14.3576 10.151 14.3771 6.95417 14.3688C5.6643 14.3654 4.47864 14.3787 3.62409 14.4022C3.58409 14.4034 3.56988 14.405 3.53132 14.4061C3.51554 14.6305 3.50121 14.7896 3.48469 15.0634C3.4154 16.2112 3.34213 17.7422 3.27985 19.2931C3.21758 20.844 3.16607 22.4176 3.13971 23.6535C3.12758 24.2227 3.12244 24.6951 3.12214 25.0797C3.19664 25.0039 3.26307 24.9521 3.34089 24.8607C3.70455 24.4339 4.08853 24.0294 4.44465 23.6918C4.80076 23.3541 4.91215 23.1277 5.61359 22.8248C6.94011 22.2521 8.23988 22.5773 9.41438 23.1144C10.5889 23.6515 11.6887 24.4959 12.4683 25.6417C13.8393 27.6568 14.0106 30.1466 13.3883 32.2977C12.7659 34.4488 11.272 36.4269 8.97053 37.0329C7.21537 37.495 5.37025 36.883 3.74372 35.5214C3.56038 35.3679 3.41323 35.2728 3.25641 35.163C3.25251 35.2195 3.2423 35.2608 3.23957 35.3173C3.17952 36.5611 3.20928 39.752 3.28693 42.5556C3.32576 43.9574 3.37548 45.2786 3.4278 46.2414C3.43439 46.3625 3.44067 46.4151 3.44733 46.5243C3.68377 46.5317 3.85577 46.5403 4.14704 46.5461C5.32126 46.5692 6.88517 46.5789 8.46296 46.5756C10.0408 46.5723 11.6353 46.5559 12.8734 46.5277C13.3166 46.5176 13.6405 46.5047 13.972 46.4919C13.2628 45.763 12.7073 45.0156 12.4127 44.1291C12.0848 43.1425 12.1542 42.0824 12.4471 41.098C12.8149 39.8617 13.738 38.8062 14.9232 38.248C16.1084 37.6897 17.4938 37.5182 19.1358 37.5529C20.4618 37.5809 21.638 37.8009 22.65 38.3258C23.662 38.8507 24.4802 39.7401 24.8675 40.8109C25.1471 41.5838 25.2566 42.4727 25.0689 43.3207C24.8813 44.1687 24.468 44.9188 23.911 45.7328C23.7396 45.9833 23.6245 46.2064 23.5062 46.4276C23.5695 46.4344 23.5424 46.4331 23.6121 46.4386C23.9947 46.4684 24.5131 46.4967 25.1229 46.5204C26.3425 46.5679 27.9322 46.5982 29.6383 46.601C32.5437 46.6057 34.5716 46.6096 35.346 46.6117ZM2.5196 46.487C2.4423 46.4657 2.41369 46.4775 2.39509 46.4785C2.41586 46.4806 2.48202 46.4841 2.5196 46.487ZM3.39314 34.1171C3.42102 34.0576 3.41105 34.0432 3.40608 34.0595C3.40409 34.0659 3.39658 34.104 3.39314 34.1171ZM3.60603 13.4655C3.63029 13.3874 3.61848 13.3598 3.61921 13.3422C3.6164 13.3621 3.61021 13.429 3.60603 13.4655Z" fill="white"/>
</svg>
