<svg width="50" height="61" viewBox="0 0 50 61" fill="none" xmlns="http://www.w3.org/2000/svg">
<path d="M22.1256 0.619236C10.4517 1.71924 1.04108 9.41924 0.0881047 19.0192C-0.626624 26.0192 3.06614 32.4192 9.02221 36.5192C10.809 37.7192 11.8811 39.5192 11.8811 41.4192V41.5192C11.8811 44.3192 14.6209 46.6192 18.0754 46.6192H31.8935C35.3481 46.6192 38.0879 44.3192 38.0879 41.5192V41.4192C38.0879 39.5192 39.1599 37.7192 40.9468 36.5192C46.4264 32.7192 50 27.1192 50 20.8192C50 8.81923 37.254 -0.680763 22.1256 0.619236Z" fill="white"/>
<path d="M35.7054 52.5193H14.2635C12.9532 52.5193 11.8811 53.4193 11.8811 54.5193C11.8811 57.8193 15.0974 60.5193 19.0284 60.5193H30.9405C34.8715 60.5193 38.0878 57.8193 38.0878 54.5193C38.0878 53.4193 37.0157 52.5193 35.7054 52.5193Z" fill="white"/>
</svg>
