<svg width="50" height="51" viewBox="0 0 50 51" fill="none" xmlns="http://www.w3.org/2000/svg">
<path d="M0 24.5833V24.5141C0.627036 16.4251 3.55692 10.3578 8.64685 6.52196C13.6676 2.61694 19.1079 0.733595 25.0346 0.733595C31.2402 0.664421 37.0286 2.75529 42.1899 6.93925C47.4204 11.054 50 17.1905 50 25.1389V25.6276C50 33.6474 47.4204 39.6433 42.1899 43.7581C36.9594 47.9421 31.1711 50.0352 24.9654 50.0352H24.6865C18.6192 49.966 13.0406 47.8729 7.88147 43.6889C2.72013 39.5741 0.0714063 33.2279 0.00223145 24.5811L0 24.5833ZM23.4994 13.6358V2.61694H21.8258C21.4777 3.03645 21.1987 3.5229 20.9198 3.94241C20.6409 4.36193 20.3619 4.77921 20.083 5.26789C19.8041 5.6874 19.456 6.24527 19.2462 6.66255C18.9673 7.08206 18.7575 7.49934 18.5478 7.98802C18.1283 8.68647 17.7802 9.38268 17.5012 10.0097C17.1531 10.6368 16.8742 11.266 16.6644 11.8239C17.0839 12.1028 17.5704 12.4509 18.1283 12.6607C18.7553 12.8704 19.3846 13.0802 20.0116 13.2185C20.71 13.3591 21.3371 13.4283 21.8949 13.4975C22.522 13.5666 23.0798 13.638 23.4994 13.638V13.6358ZM26.4292 2.61917V13.5666C26.7773 13.5666 27.1969 13.6358 27.6141 13.5666C28.0336 13.5666 28.5201 13.4975 28.9396 13.4261C29.7072 13.2855 30.6132 13.078 31.3116 12.8682C32.0793 12.5893 32.7755 12.2412 33.2642 11.8216C32.4274 9.79996 31.5214 8.19555 30.6132 6.66032C29.705 5.12508 28.6607 3.80183 27.545 2.68611V2.61694H26.4292V2.61917ZM18.8981 3.2462V3.17703C18.4094 3.38678 17.9207 3.73489 17.3629 3.94465C16.8742 4.1544 16.2472 4.43333 15.7585 4.71226C14.7811 5.20095 13.806 5.75881 12.8286 6.38585C11.9226 7.01288 11.0144 7.71132 10.249 8.40754C10.528 8.68647 10.8761 8.9654 11.155 9.17515C11.4339 9.38491 11.782 9.66384 12.1324 9.94277C12.4113 10.0834 12.7594 10.2909 13.1097 10.5698C13.4578 10.7796 13.8774 11.0585 14.2946 11.3374C14.8525 10.0811 15.4104 8.75787 16.1088 7.57074C16.8072 6.31444 17.5726 5.12954 18.3403 4.083C18.4094 3.94241 18.4808 3.80406 18.6192 3.66348C18.6884 3.59431 18.7598 3.38678 18.8981 3.2462ZM40.2352 8.40531V8.33613C38.4924 7.01065 36.9572 5.89493 35.4242 5.19872C33.8912 4.50251 32.356 3.80406 30.9613 3.2462C32.077 4.36193 33.0544 5.75658 33.6814 7.08206C34.3799 8.47671 35.0761 9.94054 35.634 11.3352C35.9129 11.1946 36.261 11.0563 36.6805 10.7773C37.0286 10.5676 37.5173 10.3578 37.9368 10.1503C38.3563 9.87136 38.7044 9.59243 39.1217 9.3135C39.5412 8.9654 39.9585 8.68647 40.2374 8.40754L40.2352 8.40531ZM39.0503 23.9562H47.0701C47.0701 21.3767 46.5122 18.9355 45.4657 16.4251C44.4883 13.9839 43.0937 11.9622 41.3509 10.2195V10.1503C41.0028 10.7082 40.5141 11.1968 40.0254 11.5449C39.4676 11.8931 38.9789 12.172 38.421 12.4509C38.0729 12.6607 37.7226 12.9396 37.3745 13.078C37.0264 13.2877 36.5377 13.4261 36.1896 13.6358C36.4685 14.1937 36.7474 14.8207 37.0264 15.3786C37.2361 16.0056 37.5842 16.7041 37.7248 17.3311C38.1443 18.4468 38.4233 19.6317 38.7022 20.8188C38.9119 21.8654 39.0503 22.9811 39.0503 23.9562ZM13.8082 13.6358V13.5666C13.2503 13.2877 12.6233 13.078 12.1346 12.799C11.6459 12.4509 11.1572 12.1006 10.7399 11.8216C10.3204 11.6119 9.90316 11.333 9.55505 11.054C9.20694 10.7751 8.92801 10.4962 8.64908 10.2172C6.83492 11.96 5.51167 13.9125 4.67488 16.2154C3.76891 18.516 3.13964 21.0978 2.86071 23.8871H11.4384C11.4384 21.9346 11.7173 20.0512 12.206 18.1679C12.6255 16.2154 13.2503 14.7515 13.8082 13.6358ZM23.4994 23.8871V15.8673C22.9415 15.9364 22.243 15.9364 21.616 15.8673C20.9176 15.7981 20.2214 15.5883 19.5943 15.3786C19.0365 15.238 18.338 15.0996 17.7802 14.8899C17.1531 14.7493 16.5239 14.4704 16.0374 14.1914C15.6179 14.8899 15.2698 15.7267 14.9909 16.6326C14.6427 17.4694 14.433 18.3754 14.2232 19.2122C14.0827 20.049 14.0135 20.955 13.9443 21.7226C13.8751 22.4902 13.8037 23.2578 13.8037 23.8848H23.4971L23.4994 23.8871ZM26.4292 16.0078V23.8871H36.7497C36.7497 23.4676 36.7497 22.9811 36.6805 22.4232C36.5399 21.9346 36.4707 21.3075 36.4016 20.7497C36.1918 19.9129 35.9821 19.0069 35.7031 18.1701C35.4242 17.4025 35.1453 16.6349 34.7972 16.0078C34.6566 15.6597 34.5182 15.2402 34.3777 14.9613C34.1679 14.6132 33.9581 14.4034 33.8198 14.1937C33.0522 14.7515 32.0056 15.0996 30.7516 15.3786C29.5667 15.6575 28.172 15.9364 26.9157 16.0056H26.427L26.4292 16.0078ZM11.4362 26.1877H2.85848C2.85848 27.3726 3.06824 28.6981 3.41634 30.3025C3.76445 31.9761 4.46289 33.5113 5.23051 35.1849C5.57861 36.0217 5.99813 36.8585 6.41541 37.6953C6.90409 38.4629 7.46195 39.2997 8.01982 40.0673C8.43933 39.7884 8.85661 39.5786 9.20471 39.3688C9.62422 39.1591 10.1107 38.8802 10.5302 38.6704C11.0189 38.4606 11.5076 38.2509 12.0654 37.972C12.5541 37.7622 13.1811 37.4833 13.8082 37.2043C13.2503 35.4616 12.6233 33.788 12.2038 31.9047C11.7151 30.0905 11.4362 28.2786 11.4362 26.2569V26.1877ZM23.4994 34.3459V26.1877H13.806C13.806 26.7456 13.8751 27.5823 14.0157 28.4191C14.0849 29.2559 14.2946 30.1619 14.4352 31.0701C14.7142 32.0475 14.9239 33.0226 15.2028 33.8594C15.4818 34.6962 15.7607 35.3946 16.0396 36.0217C17.2959 35.533 18.55 35.1849 19.3868 34.9751C20.2928 34.6962 21.1296 34.4864 21.9663 34.4173H22.734C23.0129 34.3481 23.2918 34.3481 23.5016 34.3481L23.4994 34.3459ZM26.4292 26.1877V34.2767C26.9179 34.3459 27.4758 34.4173 28.0336 34.4864C28.6607 34.5556 29.4283 34.6962 30.0553 34.8345L31.1019 35.0443C31.45 35.1849 31.8695 35.2541 32.2176 35.3232C32.6371 35.4638 33.0544 35.533 33.4739 35.6713C33.822 35.8119 34.1724 35.8811 34.4513 36.0194C35.3573 33.7188 35.9151 31.8355 36.2655 30.2311C36.6136 28.6958 36.7541 27.3726 36.7541 26.2569V26.1877H26.4337H26.4292ZM47.0701 26.2569V26.1877H39.0503V26.6072C38.9811 27.9327 38.7714 29.4657 38.4924 31.0701C38.2135 32.6053 37.5865 34.4173 36.7497 36.6487C37.8654 37.2066 38.9119 37.7644 39.7487 38.3223C40.5855 38.8802 41.3531 39.5072 41.911 40.0651C43.0959 38.8802 44.1425 37.2757 45.0484 35.1827C45.9544 33.161 46.5837 31.0679 46.9318 28.8364C47.0009 28.4169 47.0009 27.9996 47.0723 27.5801V26.2546L47.0701 26.2569ZM23.4994 47.4556V36.5773C21.7566 36.8562 20.2905 37.2043 19.1748 37.4833C18.0591 37.7622 17.2223 38.0411 16.6644 38.3201C17.0839 39.3666 17.5012 40.2726 17.9207 41.1094C18.3403 41.877 18.8267 42.7138 19.2462 43.41C19.3868 43.6889 19.6657 43.9679 19.8733 44.316C20.083 44.5949 20.2214 44.943 20.4311 45.2219C20.6409 45.57 20.8506 45.9895 21.0582 46.4068C21.3371 46.7549 21.5468 47.1744 21.8258 47.4534L23.4994 47.4556ZM26.4292 47.4556H28.0336C28.6607 46.9669 29.29 46.2707 29.7764 45.5031C30.3343 44.7355 30.9613 43.8295 31.3808 43.0619C31.8695 42.1559 32.3582 41.3191 32.7755 40.4823C33.1928 39.6455 33.5431 38.8779 33.822 38.3201C33.0544 38.0411 32.0079 37.7622 30.9635 37.4833C29.9192 37.2043 28.4532 36.9254 26.4315 36.6465V47.4556H26.4292ZM40.2352 41.7386V41.6695C40.0946 41.4597 39.8157 41.1808 39.6082 40.971C39.4006 40.7613 39.0503 40.4823 38.7022 40.2726C38.4233 40.0628 38.0752 39.8531 37.6556 39.6455C37.2361 39.438 36.6783 39.1569 36.1918 38.8779C35.9129 39.4358 35.4242 40.4132 34.728 41.7364C34.1009 43.0619 32.9852 44.6663 31.5906 46.4091C33.3333 46.1301 34.8686 45.5031 36.2632 44.6663C37.7985 43.8987 39.1217 42.8521 40.2374 41.7364L40.2352 41.7386ZM14.2946 39.5072V39.438C13.806 39.7169 13.0383 40.0651 12.273 40.4154C11.4362 40.7635 10.5302 41.183 9.6934 41.7409C10.1821 42.1604 10.6708 42.5777 11.0881 42.8566C11.5076 43.2047 11.994 43.4836 12.4135 43.7626C13.1811 44.2512 14.0871 44.7399 14.9931 45.1572C15.899 45.5745 17.0148 45.994 18.4094 46.4135C17.9207 45.8557 17.5726 45.1572 17.2245 44.5994C16.8764 44.0415 16.4569 43.4836 16.1088 42.9258C15.7607 42.3679 15.4818 41.7409 15.2028 41.183C14.8547 40.6251 14.5758 40.0673 14.2969 39.5094L14.2946 39.5072Z" fill="white"/>
</svg>
