<svg width="1916" height="393" viewBox="0 0 1916 393" fill="none" xmlns="http://www.w3.org/2000/svg">
<g clip-path="url(#clip0)">
<path d="M185.215 352.079C172.805 357.349 159.465 361.843 145.194 365.563C131.233 368.973 117.427 370.677 103.776 370.677C93.8485 370.677 84.3861 369.438 75.389 366.958C66.392 364.478 58.4808 360.448 51.6554 354.869C45.1403 349.29 39.8662 342.005 35.833 333.016C32.1101 324.027 30.2487 312.868 30.2487 299.54V187.486H0V120.997H30.2487V44.2799H118.668V120.997H166.6V187.486H118.668V268.388C118.668 276.447 120.374 282.181 123.787 285.591C127.2 288.691 131.853 290.24 137.748 290.24C142.091 290.24 147.055 289.621 152.639 288.381C158.224 286.831 163.808 284.816 169.393 282.336L185.215 352.079Z" fill="white"/>
<path d="M210.276 365.563V120.997H298.695V365.563H210.276Z" fill="white"/>
<path d="M738.06 365.563H649.641V227.937C649.641 215.848 647.159 207.169 642.195 201.899C637.542 196.32 631.802 193.53 624.977 193.53C617.841 193.53 610.24 196.785 602.174 203.294C594.418 209.803 588.678 218.173 584.956 228.402V365.563H496.536V227.937C496.536 215.848 494.054 207.169 489.091 201.899C484.437 196.32 478.697 193.53 471.872 193.53C464.736 193.53 457.135 196.785 449.069 203.294C441.313 209.803 435.574 218.173 431.851 228.402V365.563H343.431V120.997H423.009V157.264C431.696 143.935 443.64 133.861 458.842 127.042C474.044 119.912 492.038 116.348 512.824 116.348C522.752 116.348 531.439 117.588 538.885 120.067C546.33 122.237 552.69 125.337 557.964 129.366C563.549 133.396 567.892 137.891 570.995 142.85C574.407 147.81 577.044 153.079 578.906 158.659C587.593 145.33 599.382 134.946 614.274 127.507C629.475 120.067 646.694 116.348 665.929 116.348C682.062 116.348 694.782 119.447 704.089 125.647C713.706 131.536 720.997 138.975 725.961 147.965C730.925 156.954 734.182 166.563 735.734 176.792C737.285 187.021 738.06 196.32 738.06 204.689V365.563Z" fill="white"/>
<path d="M186.06 351.081C173.65 356.35 160.309 360.845 146.038 364.564C132.077 367.974 118.272 369.679 104.621 369.679C94.6931 369.679 85.2307 368.439 76.2337 365.959C67.2366 363.479 59.3254 359.45 52.5001 353.87C45.985 348.291 40.7109 341.007 36.6777 332.018C32.9548 323.028 31.0933 311.87 31.0933 298.541V186.487H0.844666V119.999H31.0933V43.2812H119.513V119.999H167.445V186.487H119.513V267.389C119.513 275.448 121.219 281.183 124.632 284.592C128.044 287.692 132.698 289.242 138.592 289.242C142.936 289.242 147.9 288.622 153.484 287.382C159.069 285.832 164.653 283.817 170.237 281.338L186.06 351.081Z" fill="white"/>
<path d="M211.12 364.564V119.999H299.539V364.564H211.12Z" fill="white"/>
<path d="M738.905 364.564H650.486V226.938C650.486 214.849 648.004 206.17 643.04 200.901C638.386 195.321 632.647 192.531 625.822 192.531C618.686 192.531 611.085 195.786 603.019 202.295C595.263 208.805 589.523 217.174 585.8 227.403V364.564H497.381V226.938C497.381 214.849 494.899 206.17 489.935 200.901C485.282 195.321 479.542 192.531 472.717 192.531C465.581 192.531 457.98 195.786 449.914 202.295C442.158 208.805 436.418 217.174 432.695 227.403V364.564H344.276V119.999H423.853V156.265C432.54 142.936 444.485 132.862 459.686 126.043C474.888 118.914 492.882 115.349 513.669 115.349C523.597 115.349 532.283 116.589 539.729 119.069C547.175 121.239 553.535 124.338 558.809 128.368C564.393 132.397 568.737 136.892 571.839 141.851C575.252 146.811 577.889 152.08 579.75 157.66C588.437 144.331 600.226 133.947 615.118 126.508C630.32 119.069 647.539 115.349 666.774 115.349C682.906 115.349 695.626 118.449 704.933 124.648C714.551 130.538 721.842 137.977 726.806 146.966C731.769 155.955 735.027 165.564 736.578 175.793C738.129 186.022 738.905 195.321 738.905 203.69V364.564Z" fill="white"/>
<path d="M953.638 351.081C941.228 356.35 927.888 360.845 913.617 364.564C899.656 367.974 885.85 369.679 872.199 369.679C862.271 369.679 852.809 368.439 843.812 365.959C834.815 363.479 826.904 359.45 820.078 353.87C813.563 348.291 808.289 341.007 804.256 332.018C800.533 323.028 798.672 311.87 798.672 298.541V186.487H768.423V119.999H798.672V43.2812H887.091V119.999H935.023V186.487H887.091V267.389C887.091 275.448 888.797 281.183 892.21 284.592C895.623 287.692 900.276 289.242 906.171 289.242C910.514 289.242 915.478 288.622 921.062 287.382C926.647 285.832 932.231 283.817 937.816 281.338L953.638 351.081Z" fill="white"/>
<path d="M1545.82 25.1481H1634.24V267.389C1634.24 285.987 1641.84 295.286 1657.04 295.286C1660.76 295.286 1664.8 294.666 1669.14 293.426C1673.48 292.187 1677.52 290.482 1681.24 288.312L1692.41 353.405C1681.86 358.365 1669.91 362.24 1656.57 365.029C1643.54 367.819 1631.13 369.214 1619.35 369.214C1595.77 369.214 1577.62 363.169 1564.9 351.081C1552.18 338.992 1545.82 321.479 1545.82 298.541V25.1481Z" fill="white"/>
<path d="M1814.09 369.214C1792.68 369.214 1771.74 365.804 1751.26 358.985C1730.79 351.856 1713.41 341.627 1699.14 328.298L1729.39 275.293C1744.59 285.522 1759.17 293.426 1773.13 299.006C1787.4 304.585 1800.43 307.375 1812.22 307.375C1824.63 307.375 1830.84 303.5 1830.84 295.751C1830.84 291.412 1828.36 287.692 1823.39 284.592C1818.74 281.493 1809.43 277.928 1795.47 273.898C1778.1 268.939 1763.52 264.134 1751.73 259.485C1740.25 254.525 1730.79 249.256 1723.34 243.676C1716.2 238.097 1711.08 231.898 1707.98 225.078C1704.88 218.259 1703.33 210.2 1703.33 200.901C1703.33 188.502 1705.81 177.033 1710.77 166.494C1715.74 155.955 1722.56 146.811 1731.25 139.062C1740.25 131.313 1750.8 125.423 1762.9 121.394C1775.31 117.054 1788.8 114.884 1803.38 114.884C1821.38 114.884 1838.44 117.209 1854.57 121.858C1871.01 126.508 1887.46 135.962 1903.9 150.221L1870.39 203.225C1855.19 193.306 1842.47 186.332 1832.23 182.302C1822 177.963 1812.38 175.793 1803.38 175.793C1798.11 175.793 1793.76 176.878 1790.35 179.048C1786.94 180.908 1785.23 184.007 1785.23 188.347C1785.23 192.996 1787.71 196.871 1792.68 199.971C1797.64 202.76 1807.42 206.015 1822 209.735C1839.68 214.384 1854.57 219.344 1866.67 224.613C1878.77 229.573 1888.39 235.152 1895.52 241.352C1902.97 247.241 1908.24 254.06 1911.35 261.81C1914.45 269.249 1916 277.928 1916 287.847C1916 300.556 1913.67 311.87 1909.02 321.789C1904.37 331.708 1897.54 340.232 1888.54 347.361C1879.86 354.49 1869.15 359.915 1856.43 363.634C1844.02 367.354 1829.91 369.214 1814.09 369.214Z" fill="white"/>
<path d="M350.883 0.0045223H371.545C377.252 0.00452207 381.876 4.61007 381.881 10.2795V92.5793C381.881 98.2624 377.256 102.868 371.55 102.868H350.888C345.181 102.868 340.557 98.2624 340.557 92.5793V82.2953H314.17C307.011 94.5434 293.836 102.873 278.579 102.873L233.713 102.872C222.751 102.877 212.242 98.5397 204.495 90.8244L195.935 82.2998L133.958 102.877C133.963 46.0601 180.213 2.26875e-06 237.26 0H278.575C293.832 0 307.007 8.3291 314.165 20.5772L340.552 20.5772V10.2931C340.552 4.61008 345.177 0.00452252 350.883 0.0045223Z" fill="white"/>
<path d="M1480.72 141.539L1455.36 156.165C1444.68 147.051 1432.41 139.974 1419.17 135.29L1419.17 106.033C1419.18 102.676 1416.85 99.8185 1413.59 99.0368C1391.93 94.1676 1369.71 94.3269 1348.54 99.0794C1345.29 99.8174 1342.93 102.713 1342.95 106.018L1342.95 135.275C1329.68 139.915 1317.42 146.987 1306.76 156.153L1281.45 141.552C1278.56 139.887 1274.88 140.438 1272.62 142.914C1257.47 159.379 1246.48 178.864 1240.12 199.159C1239.1 202.348 1240.47 205.814 1243.35 207.48L1268.72 222.11C1266.18 235.894 1266.18 250.043 1268.71 263.863L1243.38 278.438C1240.48 280.129 1239.13 283.539 1240.16 286.745C1246.58 307.407 1257.55 326.716 1272.65 343.05C1274.93 345.531 1278.6 346.071 1281.5 344.38L1306.87 329.754C1317.55 338.868 1329.81 345.945 1343.05 350.629L1343.06 379.886C1343.04 383.242 1345.38 386.1 1348.64 386.882C1370.29 391.751 1392.52 391.592 1413.69 386.839C1416.93 386.101 1419.29 383.205 1419.28 379.9L1419.27 350.644C1432.54 346.004 1444.81 338.932 1455.46 329.766L1480.83 344.396C1483.71 346.062 1487.4 345.51 1489.66 343.034C1504.81 326.57 1515.79 307.085 1522.16 286.79C1523.18 283.6 1521.81 280.134 1518.92 278.469L1493.56 263.838C1496.1 250.055 1496.09 235.906 1493.56 222.085L1518.92 207.459C1521.82 205.768 1523.18 202.358 1522.14 199.152C1515.73 178.49 1504.76 159.18 1489.66 142.847C1487.27 140.439 1483.62 139.848 1480.72 141.539V141.539ZM1422.31 266.76C1409.19 289.474 1380 297.289 1357.26 284.175C1334.53 271.061 1326.71 241.895 1339.83 219.181C1352.96 196.467 1382.15 188.652 1404.88 201.766C1427.62 214.88 1435.44 244.046 1422.31 266.76Z" fill="white"/>
<path d="M1096.5 369.214C1074.47 369.214 1055.08 365.804 1038.33 358.985C1021.89 351.856 1007.93 342.557 996.448 331.088C985.279 319.309 976.747 305.825 970.852 290.637C965.268 275.138 962.476 259.02 962.476 242.281C962.476 225.543 965.268 209.58 970.852 194.391C976.747 178.893 985.279 165.409 996.448 153.94C1007.93 142.161 1021.89 132.862 1038.33 126.043C1055.08 118.914 1074.47 115.349 1096.5 115.349C1118.22 115.349 1137.45 118.914 1154.21 126.043C1170.96 132.862 1184.92 142.161 1196.09 153.94C1207.57 165.409 1216.1 178.893 1221.68 194.391C1227.58 209.58 1230.53 225.543 1230.53 242.281C1230.53 259.02 1227.58 275.138 1221.68 290.637C1216.1 305.825 1207.57 319.309 1196.09 331.088C1184.92 342.557 1170.96 351.856 1154.21 358.985C1137.45 365.804 1118.22 369.214 1096.5 369.214ZM1053.22 242.281C1053.22 258.71 1057.25 271.574 1065.32 280.873C1073.39 290.172 1083.78 294.821 1096.5 294.821C1109.22 294.821 1119.61 290.172 1127.68 280.873C1135.75 271.574 1139.78 258.71 1139.78 242.281C1139.78 225.853 1135.75 212.989 1127.68 203.69C1119.61 194.391 1109.22 189.742 1096.5 189.742C1083.78 189.742 1073.39 194.391 1065.32 203.69C1057.25 212.989 1053.22 225.853 1053.22 242.281Z" fill="white"/>
</g>
<defs>
<clipPath id="clip0">
<rect width="1916" height="393" fill="white"/>
</clipPath>
</defs>
</svg>
