<svg width="50" height="51" viewBox="0 0 50 51" fill="none" xmlns="http://www.w3.org/2000/svg">
<path d="M36.7104 0.710205L12.4521 0.718538C9.59791 0.718538 6.71041 1.43729 4.61458 3.03104C3.14693 4.10066 1.98947 5.54065 1.26042 7.20395C0.485416 8.8977 0 11.1685 0 13.1081L0.025 38.5248C0.0291667 41.8664 1.02292 44.8935 3.06875 47.0914C5.11875 49.2914 8.19791 50.5977 12.0917 50.6143L35.1166 50.7102C37.7416 50.7206 41.5646 50.6352 44.0812 49.2227C46.3208 47.9623 48.3 45.981 49.2833 43.006C49.8625 41.256 50.0021 38.6644 50 36.4498L49.9562 13.2623C49.9521 11.4123 49.6437 9.0477 48.8166 7.14979C47.9312 5.11645 46.3562 3.36854 43.9791 2.0977C42.4021 1.25187 39.8375 0.710205 36.7104 0.710205ZM36.7104 2.6477C39.5812 2.6477 41.9979 3.26229 43.0437 3.82479C45.0791 4.91437 46.2604 6.25395 46.9791 7.90812C47.6354 9.4102 47.9583 11.6435 47.9646 13.2664L48.0021 36.4539C48.0062 38.5644 47.8 41.156 47.3812 42.4123C46.5562 44.9164 44.9937 46.4664 43.0833 47.5414C41.3875 48.4935 37.6416 48.7768 35.125 48.7664L12.1042 48.6748C8.65208 48.6602 6.20416 47.5623 4.55 45.7873C2.9 44.0143 2.025 41.4956 2.025 38.5269L2.08125 13.106C2.08125 11.3789 2.48958 9.29978 3.06875 8.02895C3.7875 6.45187 4.63125 5.51437 5.9125 4.54145C7.46875 3.35604 10.1417 2.73104 12.6667 2.73104L36.7104 2.6477ZM24.9187 9.77895C20.8021 9.96437 18.2437 13.2331 18.2229 16.6331C18.2625 19.6394 21.6292 23.8852 24.2312 26.0706C24.4812 26.2769 24.5521 26.2977 24.9187 26.4456C25.0479 26.4977 25.3312 26.3477 25.6 26.1644C26.35 25.6539 27.6687 24.1914 29.0333 22.5435C29.8973 21.4722 30.6193 20.2937 31.1812 19.0373C32.0333 17.1831 31.725 15.706 31.6708 15.1039C31.2877 13.7755 30.5788 12.5638 29.6083 11.5789C28.3217 10.4194 26.6508 9.7781 24.9187 9.77895ZM33.6104 26.2831C31.3035 26.3364 29.0208 26.7657 26.8521 27.5539C26.5396 27.6748 26.3104 27.7623 26.0729 27.9081C25.9542 27.9831 25.8437 28.1894 25.8542 28.5164C25.8896 29.4185 26.4583 31.1789 27.1542 33.2456C27.9542 35.6102 29.375 37.9748 30.9958 38.9539C31.7799 39.4246 32.6516 39.7305 33.5578 39.853C34.4641 39.9755 35.3858 39.912 36.2667 39.6664C38 39.1602 39.5896 37.8581 40.3541 36.4456C42.4083 32.6581 40.75 29.0539 38.0187 27.2435C37.0875 26.6269 35.6583 26.3164 34.0812 26.2852C33.9271 26.2852 33.7687 26.281 33.6104 26.2831ZM16.0437 26.3623C15.52 26.3631 14.9968 26.3958 14.4771 26.4602C13.2354 26.6227 12.5354 27.0289 11.7896 27.5227C10.3382 28.4714 9.3171 29.9519 8.94583 31.6456C8.78958 32.7956 8.76666 33.8394 9.01458 34.7852C9.91666 37.6789 11.7771 39.4144 14.9458 39.8935C16.2708 39.9519 17.8 39.7623 19.0917 38.956C21.7354 37.3269 23.425 32.3519 24.1167 29.0769C24.2271 28.7102 24.1896 28.3331 24.0896 28.2019C24.0792 28.0623 23.9979 27.9664 23.6937 27.8206C22.8646 27.4206 20.9437 26.9519 18.7458 26.5706C17.8526 26.4249 16.9487 26.3552 16.0437 26.3623Z" fill="white"/>
</svg>
