<svg width="50" height="50" viewBox="0 0 50 50" fill="none" color="fffff"  xmlns="http://www.w3.org/2000/svg">
<path d="M33.025 18.7104H23.4667V0H33.025C38.1833 0 42.3792 4.19583 42.3792 9.35417C42.3792 14.5125 38.1833 18.7104 33.025 18.7104ZM26.5312 15.6458H33.025C36.4937 15.6458 39.3146 12.8229 39.3146 9.35625C39.3146 5.88958 36.4917 3.06667 33.025 3.06667H26.5312V15.6458ZM26.5312 18.7104H16.975C11.8167 18.7104 7.62083 14.5146 7.62083 9.35625C7.62083 4.19792 11.8167 0 16.975 0H26.5333V18.7104H26.5312ZM16.975 3.06458C13.5063 3.06458 10.6854 5.8875 10.6854 9.35417C10.6854 12.8208 13.5063 15.6458 16.975 15.6458H23.4688V3.06458H16.975ZM26.5312 34.3542H16.975C11.8167 34.3542 7.62083 30.1583 7.62083 25C7.62083 19.8417 11.8167 15.6458 16.975 15.6458H26.5333V34.3542H26.5312ZM16.975 18.7104C13.5063 18.7104 10.6854 21.5333 10.6854 25C10.6854 28.4667 13.5083 31.2896 16.975 31.2896H23.4688V18.7104H16.975ZM17.025 50C11.8396 50 7.61875 45.8042 7.61875 40.6458C7.61875 35.4875 11.8146 31.2917 16.9729 31.2917H26.5312V40.5438C26.5312 45.7583 22.2667 50 17.025 50ZM16.975 34.3542C15.3076 34.3564 13.7091 35.0197 12.53 36.1988C11.351 37.3778 10.6876 38.9763 10.6854 40.6437C10.6854 44.1125 13.5292 46.9333 17.0271 46.9333C20.5792 46.9333 23.4708 44.0667 23.4708 40.5417V34.3542H16.975ZM33.025 34.3542H32.8208C27.6625 34.3542 23.4667 30.1583 23.4667 25C23.4667 19.8417 27.6625 15.6458 32.8208 15.6458H33.025C38.1833 15.6458 42.3792 19.8417 42.3792 25C42.3792 30.1583 38.1833 34.3542 33.025 34.3542ZM32.8229 18.7104C29.3542 18.7104 26.5333 21.5333 26.5333 25C26.5333 28.4667 29.3562 31.2896 32.8229 31.2896H33.0271C36.4958 31.2896 39.3167 28.4667 39.3167 25C39.3167 21.5333 36.4917 18.7104 33.025 18.7104H32.8229Z" fill="white"/>
</svg>
