<svg width="50" height="51" viewBox="0 0 50 51" fill="none" xmlns="http://www.w3.org/2000/svg">
<path d="M15.9713 31.3646C16.465 31.6708 23.9253 33.1874 25.7482 33.4895C26.3794 33.6228 25.9315 34.2728 25.0607 34.7124C23.0962 35.2353 13.5672 31.3646 15.9713 31.3646ZM27.7357 3.73173L35.0376 11.1483C35.7313 11.8566 35.7209 13.2274 35.3334 13.6211L31.7085 10.7212L30.996 15.0149L27.9648 13.417L23.1149 16.4794L21.5087 10.0212L18.9025 14.5294H14.9171C13.2922 14.5294 13.1026 12.467 14.5776 10.992C17.1546 8.21081 20.1129 5.37545 21.7212 3.73173C23.3378 2.07968 26.1524 2.12759 27.7357 3.73173ZM20.3879 2.40467L1.92988 21.2918C-4.30542 29.0146 6.17564 28.1167 10.6672 30.3396C12.2797 31.9875 4.49025 33.2041 6.10272 34.852C7.71311 36.4999 15.8484 38.0269 17.4629 39.6727C19.0733 41.3206 14.163 43.0685 15.7755 44.7143C17.3859 46.3643 21.115 44.8018 21.8129 48.6059C22.3087 51.3225 28.5294 49.7725 31.571 47.5476C33.1835 45.8997 28.4877 46.0539 30.1002 44.406C34.1064 40.3081 37.8396 42.9185 39.2104 38.8102C39.8875 36.7811 33.3106 35.6832 34.9251 34.0353C39.5625 31.3271 55.5893 29.5646 47.9832 21.9606L28.8544 2.40467C26.5149 0.158877 22.6066 0.133878 20.3879 2.40467ZM41.5896 38.8102C41.5896 39.7477 48.4936 40.3623 48.4936 38.5894C47.5103 35.7436 42.4062 35.9353 41.5896 38.8102ZM10.4901 43.7893C12.1234 45.2039 14.6505 43.4372 15.4067 41.4644C13.8234 39.3602 7.89228 41.5415 10.4901 43.7893ZM40.7229 40.7352C38.6167 42.6268 40.9604 44.5435 43.0375 43.3227C43.5 42.8539 43.0229 41.206 40.7229 40.7352Z" fill="white"/>
</svg>
