<svg width="50" height="50" viewBox="0 0 50 50" fill="none" xmlns="http://www.w3.org/2000/svg">
<path d="M48.231 5.26693L37.9372 0.309914C37.3554 0.0297953 36.7009 -0.0624944 36.0643 0.0458361C35.4278 0.154167 34.8407 0.457752 34.3843 0.914547L0.679509 31.6461C0.465576 31.8414 0.29471 32.0791 0.177796 32.3441C0.0608813 32.6091 0.000488281 32.8955 0.000488281 33.1852C0.000488281 33.4748 0.0608813 33.7613 0.177796 34.0263C0.29471 34.2913 0.465576 34.529 0.679509 34.7243L3.43286 37.2228C3.79247 37.5496 4.25499 37.7405 4.74043 37.7624C5.22587 37.7843 5.7037 37.6358 6.09127 37.3427L46.6819 6.55117C46.9888 6.31865 47.3545 6.1764 47.7379 6.14043C48.1213 6.10446 48.5071 6.1762 48.8519 6.34757C49.1967 6.51893 49.4868 6.78313 49.6896 7.11043C49.8925 7.43773 49.9999 7.81514 49.9999 8.20018V8.08025C49.9998 7.49236 49.8336 6.91646 49.5207 6.41878C49.2078 5.9211 48.7607 5.52184 48.231 5.26693Z" fill="white"/>
<path d="M48.231 44.4433L37.9372 49.4004C37.3554 49.6805 36.7009 49.7728 36.0643 49.6644C35.4278 49.5561 34.8407 49.2525 34.3843 48.7957L0.679509 18.0642C0.465576 17.8689 0.29471 17.6312 0.177796 17.3662C0.0608813 17.1012 0.000488281 16.8147 0.000488281 16.5251C0.000488281 16.2354 0.0608813 15.949 0.177796 15.684C0.29471 15.419 0.465576 15.1813 0.679509 14.986L3.43286 12.4875C3.79247 12.1607 4.25499 11.9698 4.74043 11.9479C5.22587 11.926 5.7037 12.0745 6.09127 12.3676L46.6819 43.1591C46.9888 43.3916 47.3545 43.5339 47.7379 43.5698C48.1213 43.6058 48.5071 43.5341 48.8519 43.3627C49.1967 43.1914 49.4868 42.9271 49.6896 42.5998C49.8925 42.2725 49.9999 41.8952 49.9999 41.5101V41.63C49.9998 42.2179 49.8336 42.7938 49.5207 43.2915C49.2078 43.7892 48.7607 44.1884 48.231 44.4433Z" fill="white"/>
<path d="M37.9371 49.4053C37.3554 49.6854 36.7009 49.7777 36.0643 49.6694C35.4277 49.5611 34.8406 49.2575 34.3843 48.8007C34.6401 49.0569 34.9661 49.2314 35.3211 49.3021C35.6762 49.3728 36.0442 49.3366 36.3787 49.198C36.7131 49.0594 36.9989 48.8247 37.1998 48.5236C37.4007 48.2225 37.5078 47.8685 37.5074 47.5065V2.20364C37.5078 1.84163 37.4007 1.48764 37.1998 1.18651C36.9989 0.885382 36.7131 0.650668 36.3787 0.512078C36.0442 0.373489 35.6762 0.337266 35.3211 0.408C34.9661 0.478733 34.6401 0.65323 34.3843 0.909408C34.8406 0.452613 35.4277 0.149043 36.0643 0.040712C36.7009 -0.0676186 37.3554 0.0246559 37.9371 0.304775L48.231 5.25681C48.7607 5.51171 49.2077 5.91096 49.5207 6.40864C49.8336 6.90632 49.9997 7.48223 49.9999 8.07012V41.635C49.9997 42.2229 49.8336 42.7988 49.5207 43.2964C49.2077 43.7941 48.7607 44.1934 48.231 44.4483L37.9371 49.4053Z" fill="white"/>
<g opacity="0.25">
<path d="M35.4337 49.5002C35.834 49.6582 36.2628 49.7314 36.6929 49.715C37.123 49.6987 37.545 49.5932 37.9322 49.4052L48.221 44.4532C48.7507 44.1983 49.1978 43.799 49.5107 43.3013C49.8236 42.8037 49.9898 42.2278 49.9899 41.6399V8.07003C49.9898 7.48214 49.8236 6.90624 49.5107 6.40855C49.1978 5.91087 48.7507 5.51163 48.221 5.25672L37.9322 0.304687C37.3511 0.0249771 36.6975 -0.067085 36.0618 0.0412499C35.4261 0.149585 34.8399 0.452948 34.3843 0.90932L14.6911 18.8985L6.11126 12.4024C5.72407 12.1084 5.24604 11.9593 4.76034 11.9813C4.27464 12.0032 3.812 12.1946 3.45285 12.5224L0.699501 15.0209C0.485568 15.2161 0.314687 15.4538 0.197773 15.7188C0.0808584 15.9838 0.0204806 16.2703 0.0204806 16.5599C0.0204806 16.8496 0.0808584 17.136 0.197773 17.401C0.314687 17.666 0.485568 17.9038 0.699501 18.099L8.12005 24.855L0.679509 31.6409C0.465576 31.8362 0.29471 32.0739 0.177796 32.3389C0.0608813 32.6039 0.000488281 32.8903 0.000488281 33.18C0.000488281 33.4696 0.0608813 33.7561 0.177796 34.0211C0.29471 34.2861 0.465576 34.5238 0.679509 34.719L3.43286 37.2175C3.79201 37.5453 4.25467 37.7367 4.74037 37.7586C5.22606 37.7805 5.70408 37.6315 6.09127 37.3375L14.6711 30.8414L34.3643 48.8306C34.6712 49.1245 35.0352 49.3524 35.4337 49.5002ZM37.4824 13.5218L22.5414 24.855L37.4924 36.1982L37.4824 13.5218Z" fill="url(#paint0_linear_3399_38)"/>
</g>
<defs>
<linearGradient id="paint0_linear_3399_38" x1="24.9849" y1="-0.000126343" x2="24.9849" y2="49.71" gradientUnits="userSpaceOnUse">
<stop stop-color="white"/>
<stop offset="1" stop-color="white" stop-opacity="0"/>
</linearGradient>
</defs>
</svg>
