<svg width="50" height="51" viewBox="0 0 50 51" fill="none" xmlns="http://www.w3.org/2000/svg">
<path d="M0 0.710205V50.7102H50V0.710205H0ZM37.2687 6.72895C40.2771 6.72895 42.825 7.65395 44.9083 9.39145L42.5937 12.8644C40.7417 11.5915 39.0062 10.781 37.2687 10.781C35.5312 10.781 34.6062 11.5915 34.6062 12.6331V12.7498C34.6062 14.1394 35.5312 14.6019 39.0042 15.5269C43.1708 16.6852 45.4854 18.1894 45.4854 21.7769V21.8935C45.4854 26.0602 42.3604 28.3748 37.9625 28.3748C34.8375 28.2581 31.7125 27.1019 29.2812 24.9019L31.9437 21.6602C33.7958 23.1644 35.7625 24.206 38.0771 24.206C39.9292 24.206 40.9708 23.5123 40.9708 22.2394V22.1227C40.9708 20.9644 40.2771 20.3873 36.8042 19.4602C32.6375 18.4185 30.0917 17.2602 30.0917 13.0935V12.9769C30.0917 9.15812 33.1 6.72687 37.2667 6.72687L37.2687 6.72895ZM3.70417 7.19145H8.45L11.575 19.229L15.1625 7.19145H18.6354L22.1083 19.229L25.2333 7.19145H30.0937L24.1917 27.9081H20.2562L16.9 15.8706L13.4271 27.9081H9.60833L3.70625 7.19145H3.70417ZM4.74583 41.3352H23.4958V44.4602H4.74583V41.3352Z" fill="white"/>
</svg>
