<svg width="50" height="51" viewBox="0 0 50 51" fill="none" xmlns="http://www.w3.org/2000/svg">
<path d="M50 28.2319V48.2319C50 48.895 49.7366 49.5309 49.2678 49.9997C48.7989 50.4685 48.163 50.7319 47.5 50.7319H27.5C26.837 50.7319 26.2011 50.4685 25.7322 49.9997C25.2634 49.5309 25 48.895 25 48.2319V28.2319C25 27.5689 25.2634 26.933 25.7322 26.4642C26.2011 25.9953 26.837 25.7319 27.5 25.7319H47.5C48.163 25.7319 48.7989 25.9953 49.2678 26.4642C49.7366 26.933 50 27.5689 50 28.2319ZM12.5 10.7319C11.837 10.7319 11.2011 10.9953 10.7322 11.4642C10.2634 11.933 10 12.5689 10 13.2319V35.7319C10 36.395 10.2634 37.0309 10.7322 37.4997C11.2011 37.9685 11.837 38.2319 12.5 38.2319H20V21.9819C20 21.6504 20.1317 21.3325 20.3661 21.098C20.6005 20.8636 20.9185 20.7319 21.25 20.7319H37.5V13.2319C37.5 12.5689 37.2366 11.933 36.7678 11.4642C36.2989 10.9953 35.663 10.7319 35 10.7319H12.5ZM2.5 28.2319H5V6.98193C5 6.65041 5.1317 6.33247 5.36612 6.09805C5.60054 5.86363 5.91848 5.73193 6.25 5.73193H27.5V3.23193C27.5 2.56889 27.2366 1.93301 26.7678 1.46417C26.2989 0.995326 25.663 0.731934 25 0.731934H2.5C1.83696 0.731934 1.20107 0.995326 0.732233 1.46417C0.263392 1.93301 0 2.56889 0 3.23193V25.7319C0 26.395 0.263392 27.0309 0.732233 27.4997C1.20107 27.9685 1.83696 28.2319 2.5 28.2319Z" fill="white"/>
</svg>
