<svg width="50" height="42" viewBox="0 0 50 42" fill="none" xmlns="http://www.w3.org/2000/svg">
<path d="M26.0624 23.5291C26.1582 21.8624 26.9749 20.3916 28.2082 19.3499C29.5022 18.2751 31.1345 17.6922 32.8166 17.7041C34.5874 17.7041 36.2145 18.3291 37.4228 19.3499C38.6562 20.3916 39.4707 21.8624 39.5645 23.527C39.6582 25.2416 38.9707 26.8312 37.7624 28.0124C36.4315 29.2835 34.6569 29.9847 32.8166 29.9666C30.975 29.9849 29.199 29.2838 27.8666 28.0124C26.6582 26.8312 25.9687 25.2416 26.0624 23.5291ZM15.3124 26.8978C15.3249 27.552 15.5332 28.8187 15.8457 29.8103C16.5204 31.9438 17.653 33.9041 19.1645 35.5541C20.7854 37.3363 22.7639 38.7567 24.9707 39.7228C27.3726 40.7816 29.9709 41.3212 32.5957 41.3062C35.2201 41.3113 37.8161 40.7633 40.2145 39.6978C42.4198 38.7226 44.3963 37.2961 46.0166 35.5103C47.5256 33.8549 48.6572 31.8917 49.3332 29.7562C49.9833 27.6872 50.1613 25.4988 49.8541 23.352C49.5616 21.2953 48.8404 19.3228 47.7374 17.5624C46.7156 15.9248 45.4088 14.4833 43.8791 13.3062H43.8832L28.2624 1.31242L28.2207 1.28117C27.1957 0.493673 25.4728 0.497839 24.3457 1.28534C23.2062 2.08117 23.077 3.39992 24.0895 4.23326L24.0874 4.23534L30.5999 9.53325L10.7457 9.55409H10.7187C9.07699 9.55617 7.49991 10.6333 7.18741 11.9958C6.86658 13.3812 7.97908 14.5312 9.68741 14.5374V14.5416L19.7499 14.5208L1.79158 28.3062L1.72074 28.3583C0.026994 29.6541 -0.518839 31.8124 0.547827 33.177C1.63116 34.5666 3.93324 34.5687 5.64574 33.1853L15.4457 25.1666C15.4457 25.1666 15.2999 26.2499 15.3124 26.8978ZM40.4999 30.5249C38.4791 32.5833 35.6541 33.7499 32.5937 33.7541C29.5312 33.7624 26.7041 32.6041 24.6832 30.5499C23.729 29.592 22.9928 28.4393 22.5249 27.1708C22.0961 25.9772 21.9267 24.706 22.028 23.4418C22.1293 22.1776 22.499 20.9495 23.1124 19.8395C23.7227 18.7423 24.5382 17.7726 25.5145 16.9833C27.477 15.3833 29.9749 14.5187 32.5895 14.5145C35.2062 14.5103 37.7041 15.3687 39.6687 16.9624C40.6687 17.777 41.4812 18.7416 42.0687 19.8103C42.6768 20.9055 43.0473 22.1165 43.1562 23.3645C43.2666 24.6434 43.0966 25.931 42.6582 27.1374C42.1902 28.4079 41.4528 29.5631 40.4999 30.5249Z" fill="white"/>
</svg>
