<svg width="60" height="61" viewBox="0 0 60 61" fill="none" xmlns="http://www.w3.org/2000/svg">
<path fill-rule="evenodd" clip-rule="evenodd" d="M12.1327 39.4504C10.0313 39.4098 8.36058 37.6734 8.40073 35.572V27.8152C8.36058 25.7138 10.0313 23.9776 12.1327 23.9369H25.7167C26.5776 23.9348 27.4102 23.6278 28.0663 23.0705L32.4607 19.3673C33.5916 18.4364 35.1634 18.2557 36.4759 18.9058C37.7885 19.5558 38.5975 20.9156 38.5423 22.3793V41.008C38.5975 42.4718 37.7885 43.8314 36.4759 44.4815C35.1634 45.1317 33.5916 44.951 32.4607 44.02L28.0663 40.3168C27.4102 39.7595 26.5776 39.4526 25.7167 39.4504H12.1327Z" stroke="white" stroke-width="3.6" stroke-linecap="round" stroke-linejoin="round"/>
<path d="M27.2839 31.6938C27.2839 30.6994 26.4779 29.8938 25.4839 29.8938C24.4898 29.8938 23.6838 30.6994 23.6838 31.6938H27.2839ZM23.6838 39.4506C23.6838 40.4446 24.4898 41.2506 25.4839 41.2506C26.4779 41.2506 27.2839 40.4446 27.2839 39.4506H23.6838ZM50.7506 21.5369C51.5671 20.9699 51.7694 19.8483 51.2023 19.0317C50.6351 18.2152 49.5136 18.013 48.6971 18.58L50.7506 21.5369ZM43.1123 22.4584C42.2959 23.0254 42.0935 24.1471 42.6607 24.9636C43.2275 25.7802 44.3493 25.9822 45.1658 25.4153L43.1123 22.4584ZM51.6007 33.4938C52.5947 33.4938 53.4007 32.6878 53.4007 31.6938C53.4007 30.6994 52.5947 29.8938 51.6007 29.8938V33.4938ZM46.0039 29.8938C45.0098 29.8938 44.2039 30.6994 44.2039 31.6938C44.2039 32.6878 45.0098 33.4938 46.0039 33.4938V29.8938ZM48.7106 44.8083C49.5278 45.3745 50.6491 45.1712 51.2152 44.354C51.7816 43.537 51.5781 42.4155 50.7611 41.8494L48.7106 44.8083ZM45.1643 37.971C44.3471 37.4048 43.2259 37.6081 42.6595 38.4253C42.0933 39.2422 42.2966 40.3638 43.1138 40.9299L45.1643 37.971ZM23.6838 31.6938V39.4506H27.2839V31.6938H23.6838ZM48.6971 18.58L43.1123 22.4584L45.1658 25.4153L50.7506 21.5369L48.6971 18.58ZM51.6007 29.8938H46.0039V33.4938H51.6007V29.8938ZM50.7611 41.8494L45.1643 37.971L43.1138 40.9299L48.7106 44.8083L50.7611 41.8494Z" fill="white"/>
</svg>
