<svg width="50" height="51" viewBox="0 0 50 51" fill="none" xmlns="http://www.w3.org/2000/svg">
<path d="M42.5979 42.6222H35.1937V31.0202C35.1937 28.2535 35.1375 24.6931 31.3354 24.6931C27.475 24.6931 26.8854 27.7035 26.8854 30.816V42.6222H19.4812V18.7639H26.5938V22.016H26.6896C27.6833 20.141 30.1 18.1618 33.7104 18.1618C41.2125 18.1618 42.6 23.0993 42.6 29.5264L42.5979 42.6222ZM11.1187 15.4993C8.73542 15.4993 6.82083 13.5702 6.82083 11.1972C6.82083 8.82642 8.7375 6.89933 11.1187 6.89933C13.4937 6.89933 15.4187 8.82642 15.4187 11.1972C15.4187 13.5702 13.4917 15.4993 11.1187 15.4993ZM14.8312 42.6222H7.40625V18.7639H14.8312V42.6222ZM46.3021 0.013916H3.68958C1.65 0.013916 0 1.62642 0 3.616V46.4118C0 48.4035 1.65 50.0139 3.68958 50.0139H46.2958C48.3333 50.0139 50 48.4035 50 46.4118V3.616C50 1.62642 48.3333 0.013916 46.2958 0.013916H46.3021Z" fill="white"/>
</svg>
