<svg width="50" height="36" viewBox="0 0 50 36" fill="none" xmlns="http://www.w3.org/2000/svg">
<path d="M48.9542 5.9015C48.6717 4.83749 48.1146 3.86636 47.3388 3.08538C46.5629 2.30439 45.5955 1.74096 44.5333 1.4515C40.6354 0.399414 25 0.399414 25 0.399414C25 0.399414 9.36458 0.399414 5.46458 1.4515C4.40293 1.74147 3.43603 2.30511 2.66058 3.08604C1.88513 3.86698 1.32832 4.83783 1.04583 5.9015C0 9.8265 0 18.014 0 18.014C0 18.014 0 26.2015 1.04583 30.1265C1.3283 31.1905 1.88537 32.1616 2.66123 32.9426C3.4371 33.7236 4.40454 34.287 5.46667 34.5765C9.36458 35.6286 25 35.6286 25 35.6286C25 35.6286 40.6354 35.6286 44.5354 34.5765C45.5976 34.2872 46.5652 33.7239 47.3411 32.9428C48.117 32.1618 48.674 31.1906 48.9562 30.1265C50 26.2015 50 18.014 50 18.014C50 18.014 50 9.8265 48.9542 5.9015ZM19.8854 25.4473V10.5807L32.9542 18.014L19.8854 25.4473Z" fill="white"/>
</svg>
