<svg width="50" height="50" viewBox="0 0 50 50" fill="none" xmlns="http://www.w3.org/2000/svg">
<g clip-path="url(#clip0_3399_253)">
<path d="M7.10417 11.0833C9.3018 11.0833 11.0833 9.3018 11.0833 7.10417C11.0833 4.90653 9.3018 3.125 7.10417 3.125C4.90653 3.125 3.125 4.90653 3.125 7.10417C3.125 9.3018 4.90653 11.0833 7.10417 11.0833Z" stroke="white" stroke-width="4.775" stroke-miterlimit="10"/>
<path d="M25 11.0833C27.1977 11.0833 28.9792 9.3018 28.9792 7.10417C28.9792 4.90653 27.1977 3.125 25 3.125C22.8024 3.125 21.0209 4.90653 21.0209 7.10417C21.0209 9.3018 22.8024 11.0833 25 11.0833Z" stroke="white" stroke-width="4.775" stroke-miterlimit="10"/>
<path d="M42.8958 11.0833C45.0934 11.0833 46.875 9.3018 46.875 7.10417C46.875 4.90653 45.0934 3.125 42.8958 3.125C40.6982 3.125 38.9166 4.90653 38.9166 7.10417C38.9166 9.3018 40.6982 11.0833 42.8958 11.0833Z" stroke="white" stroke-width="4.775" stroke-miterlimit="10"/>
<path d="M7.10417 28.9791C9.3018 28.9791 11.0833 27.1976 11.0833 24.9999C11.0833 22.8023 9.3018 21.0208 7.10417 21.0208C4.90653 21.0208 3.125 22.8023 3.125 24.9999C3.125 27.1976 4.90653 28.9791 7.10417 28.9791Z" stroke="white" stroke-width="4.775" stroke-miterlimit="10"/>
<path d="M25 28.9791C27.1977 28.9791 28.9792 27.1976 28.9792 24.9999C28.9792 22.8023 27.1977 21.0208 25 21.0208C22.8024 21.0208 21.0209 22.8023 21.0209 24.9999C21.0209 27.1976 22.8024 28.9791 25 28.9791Z" stroke="white" stroke-width="4.775" stroke-miterlimit="10"/>
<path d="M42.8958 28.9791C45.0934 28.9791 46.875 27.1976 46.875 24.9999C46.875 22.8023 45.0934 21.0208 42.8958 21.0208C40.6982 21.0208 38.9166 22.8023 38.9166 24.9999C38.9166 27.1976 40.6982 28.9791 42.8958 28.9791Z" stroke="white" stroke-width="4.775" stroke-miterlimit="10"/>
<path d="M7.10417 46.8751C9.3018 46.8751 11.0833 45.0935 11.0833 42.8959C11.0833 40.6983 9.3018 38.9167 7.10417 38.9167C4.90653 38.9167 3.125 40.6983 3.125 42.8959C3.125 45.0935 4.90653 46.8751 7.10417 46.8751Z" stroke="white" stroke-width="4.775" stroke-miterlimit="10"/>
<path d="M25 46.8751C27.1977 46.8751 28.9792 45.0935 28.9792 42.8959C28.9792 40.6983 27.1977 38.9167 25 38.9167C22.8024 38.9167 21.0209 40.6983 21.0209 42.8959C21.0209 45.0935 22.8024 46.8751 25 46.8751Z" stroke="white" stroke-width="4.775" stroke-miterlimit="10"/>
<path d="M42.8958 46.8751C45.0934 46.8751 46.875 45.0935 46.875 42.8959C46.875 40.6983 45.0934 38.9167 42.8958 38.9167C40.6982 38.9167 38.9166 40.6983 38.9166 42.8959C38.9166 45.0935 40.6982 46.8751 42.8958 46.8751Z" stroke="white" stroke-width="4.775" stroke-miterlimit="10"/>
<path d="M22.1875 22.1876L9.91663 9.91675" stroke="white" stroke-width="4.775" stroke-miterlimit="10"/>
<path d="M25 38.9167V28.9792" stroke="white" stroke-width="4.775" stroke-miterlimit="10"/>
<path d="M38.9166 7.10425H28.9791" stroke="white" stroke-width="4.775" stroke-miterlimit="10"/>
<path d="M21.0209 7.10425H11.0834" stroke="white" stroke-width="4.775" stroke-miterlimit="10"/>
</g>
<defs>
<clipPath id="clip0_3399_253">
<rect width="50" height="50" fill="white"/>
</clipPath>
</defs>
</svg>
