<svg width="47" height="61" viewBox="0 0 47 61" fill="none" xmlns="http://www.w3.org/2000/svg">
<path d="M19.1476 33.8219C19.0584 34.0563 18.9412 34.2587 18.7961 34.4278C18.6523 34.5996 18.4765 34.7327 18.2687 34.8286C18.061 34.9245 17.8067 34.9711 17.5097 34.9711C17.0929 34.9711 16.748 34.8805 16.471 34.7008C16.194 34.5183 15.973 34.28 15.8079 33.9804C15.6427 33.6834 15.5229 33.3452 15.4483 32.9736C15.3724 32.6021 15.3365 32.2226 15.3365 31.8391C15.3365 31.4542 15.3724 31.0774 15.4483 30.7032C15.5229 30.329 15.6427 29.9934 15.8079 29.6964C15.973 29.3968 16.194 29.1585 16.471 28.976C16.748 28.7936 17.0942 28.7057 17.5097 28.7057C17.8706 28.7057 18.1675 28.7736 18.3966 28.9108C18.6256 29.0506 18.8094 29.2104 18.9479 29.3915C19.0864 29.5739 19.1823 29.755 19.2355 29.9428C19.2888 30.1279 19.3261 30.2757 19.3474 30.3822H22.767C22.6179 28.9441 22.1145 27.8335 21.2556 27.0505C20.398 26.2675 19.1809 25.8693 17.6056 25.8586C16.7214 25.8586 15.9237 26.0011 15.2166 26.2901C14.5082 26.5764 13.9009 26.9826 13.3949 27.5046C12.8889 28.0266 12.5001 28.6538 12.2284 29.3902C11.9567 30.1239 11.8196 30.9415 11.8196 31.8351C11.8196 32.6753 11.9487 33.4637 12.2031 34.1921C12.4588 34.9232 12.8356 35.5517 13.331 36.0857C13.8264 36.6197 14.4296 37.0405 15.1434 37.3494C15.8571 37.6557 16.6774 37.8128 17.6056 37.8128C18.4365 37.8128 19.1769 37.673 19.8268 37.3974C20.4753 37.119 21.0213 36.7555 21.4634 36.3027C21.9055 35.85 22.241 35.34 22.4701 34.7767C22.6991 34.2147 22.815 33.6421 22.815 33.0682H19.362C19.3101 33.3345 19.2395 33.5889 19.1476 33.8219Z" fill="white"/>
<path d="M28.5519 33.0535H28.5199L26.6503 26.1343H23.1028L26.5065 37.5438H30.4375L34.0023 26.1343H30.3896L28.5519 33.0535Z" fill="white"/>
<path d="M37.6217 0.0126953H0V60.0127H46.2068V8.33682L37.6217 0.0126953ZM42.2119 56.0164H3.99494V4.00764H35.563V10.3463H42.2105L42.2119 56.0164Z" fill="white"/>
</svg>
