<svg width="53" height="53" viewBox="0 0 53 53" fill="none" xmlns="http://www.w3.org/2000/svg">
<path fill-rule="evenodd" clip-rule="evenodd" d="M39.1687 51.8111C34.1185 50.5458 23.7797 46.9786 14.4069 37.6058C5.0341 28.2331 1.46698 17.8943 0.201651 12.8441C-0.525499 9.94179 0.783926 7.14117 3.0042 5.55524L8.82483 1.39764C12.2305 -1.03498 16.9683 -0.209509 19.3506 3.23159L23.015 8.52472C24.5705 10.7716 24.034 13.8511 21.8102 15.4394L18.8883 17.5265C19.3306 19.2181 20.7059 22.6918 25.0135 26.9993C29.321 31.3068 32.7947 32.6821 34.4862 33.1243L36.5732 30.2023C38.1617 27.9788 41.2412 27.4421 43.488 28.9976L48.7812 32.6621C52.2222 35.0446 53.0477 39.7821 50.615 43.1878L46.4575 49.0086C44.8715 51.2288 42.071 52.5383 39.1687 51.8111ZM17.9424 34.0703C26.466 42.5938 35.872 45.8306 40.3837 46.9611C41.0432 47.1261 41.8405 46.8698 42.3887 46.1023L46.5465 40.2816C47.3572 39.1466 47.0822 37.5673 45.935 36.7731L40.642 33.1086L38.4022 36.2443C37.487 37.5258 35.7942 38.5308 33.8232 38.1056C31.3632 37.5748 26.8157 35.8726 21.478 30.5348C16.1402 25.1971 14.438 20.6496 13.9072 18.1896C13.4819 16.2186 14.487 14.5258 15.7685 13.6105L18.9041 11.3708L15.2396 6.07764C14.4455 4.93059 12.8663 4.65544 11.731 5.46632L5.9104 9.62392C5.1428 10.1722 4.88653 10.9694 5.05175 11.6289C6.1822 16.1408 9.41895 25.5468 17.9424 34.0703Z" fill="white"/>
</svg>
