<svg xmlns="http://www.w3.org/2000/svg"><symbol id="icon-animation" viewBox="0 0 50 51"><path d="M50 28.232v20a2.5 2.5 0 0 1-2.5 2.5h-20a2.5 2.5 0 0 1-2.5-2.5v-20a2.5 2.5 0 0 1 2.5-2.5h20a2.5 2.5 0 0 1 2.5 2.5Zm-37.5-17.5a2.5 2.5 0 0 0-2.5 2.5v22.5a2.5 2.5 0 0 0 2.5 2.5H20v-16.25a1.25 1.25 0 0 1 1.25-1.25H37.5v-7.5a2.5 2.5 0 0 0-2.5-2.5H12.5Zm-10 17.5H5V6.982a1.25 1.25 0 0 1 1.25-1.25H27.5v-2.5a2.5 2.5 0 0 0-2.5-2.5H2.5a2.5 2.5 0 0 0-2.5 2.5v22.5a2.5 2.5 0 0 0 2.5 2.5Z"/></symbol><symbol id="icon-curieux" viewBox="0 0 60 61"><path clip-rule="evenodd" d="M12.133 39.45A3.806 3.806 0 0 1 8.4 35.572v-7.757a3.806 3.806 0 0 1 3.732-3.878h13.584a3.643 3.643 0 0 0 2.35-.867l4.394-3.703a3.72 3.72 0 0 1 6.081 3.012v18.629a3.72 3.72 0 0 1-6.081 3.012l-4.395-3.703a3.644 3.644 0 0 0-2.35-.867H12.134Z" stroke-width="3.6" stroke-linecap="round" stroke-linejoin="round"/><path d="M27.284 31.694a1.8 1.8 0 1 0-3.6 0h3.6Zm-3.6 7.757a1.8 1.8 0 0 0 3.6 0h-3.6ZM50.75 21.537a1.8 1.8 0 1 0-2.054-2.957l2.054 2.957Zm-7.639.921a1.8 1.8 0 0 0 2.054 2.957l-2.054-2.957ZM51.6 33.494a1.8 1.8 0 0 0 0-3.6v3.6Zm-5.597-3.6a1.8 1.8 0 1 0 0 3.6v-3.6Zm2.707 14.914a1.8 1.8 0 1 0 2.05-2.959l-2.05 2.96Zm-3.547-6.837a1.8 1.8 0 0 0-2.05 2.959l2.05-2.959Zm-21.48-6.277v7.757h3.6v-7.757h-3.6ZM48.697 18.58l-5.585 3.878 2.054 2.957 5.585-3.878-2.054-2.957Zm2.904 11.314h-5.597v3.6H51.6v-3.6Zm-.84 11.955-5.597-3.878-2.05 2.959 5.597 3.878 2.05-2.959Z"/></symbol><symbol id="icon-discipline" viewBox="0 0 50 43"><path fill-rule="evenodd" clip-rule="evenodd" d="M0 23.175A64.999 64.999 0 0 0 20 27.5v5h10v-5a70.426 70.426 0 0 0 20-4.225V42.5H0V23.175ZM32.5 0 35 2.5v5h15v13.025A70.925 70.925 0 0 1 26.05 25h-1.8A70.225 70.225 0 0 1 0 20.4V7.5h15v-5L17.5 0h15ZM30 5H20v2.5h10V5Z"/></symbol><symbol id="icon-integration" viewBox="0 0 50 50"><path d="M36.095 49.732c-.226-.001-3.168-.007-6.462-.012-1.74-.003-3.359-.034-4.632-.083a43.756 43.756 0 0 1-1.63-.089c-.446-.035-.714-.044-1.127-.151-.495-.13-.923-.105-1.552-.718-.315-.307-.515-.786-.567-1.103-.052-.317-.036-.516-.03-.702.024-.655.21-1.03.424-1.489.215-.46.491-.935.818-1.413.446-.651.631-1.075.687-1.325.055-.25.052-.385-.09-.775-.128-.356-.294-.557-.72-.778-.425-.22-1.14-.402-2.144-.423-1.362-.029-2.302.155-2.818.398-.516.244-.672.435-.816.918-.176.594-.164.858-.064 1.158.1.301.373.736 1.014 1.36.615.6.963 1.484 1.03 2.319.034.423.188.889-.254 1.647-.221.38-.596.654-.861.782-.266.127-.454.172-.633.22-.572.15-.672.098-1.105.12-.433.02-.983.038-1.619.053-1.271.029-2.88.045-4.475.048-1.594.003-3.172-.006-4.383-.03a49.893 49.893 0 0 1-1.51-.047 8.901 8.901 0 0 1-.516-.038 2.85 2.85 0 0 1-.254-.036c-.103-.02-.14.094-.666-.273-.404-.284-.46-.489-.52-.615s-.082-.201-.1-.264c-.038-.126-.05-.2-.063-.275a6.073 6.073 0 0 1-.056-.452c-.032-.33-.06-.748-.087-1.253-.055-1.01-.105-2.348-.145-3.769C.091 39.8.051 36.69.125 35.167c.024-.501.078-.982.155-1.407.039-.213.081-.41.144-.613.062-.204.05-.382.424-.811.365-.419.939-.683 1.432-.735.494-.051.911.044 1.292.179.76.27 1.432.73 2.174 1.35 1.262 1.056 1.56 1.116 2.43.887.958-.252 1.823-1.225 2.216-2.586.394-1.361.239-2.945-.502-4.035-.383-.563-1.095-1.136-1.773-1.445-.601-.276-1.072-.264-1.183-.26-.09.062-.226.153-.344.264-.261.248-.587.59-.875.928-.934 1.097-1.605 1.99-3.094 2.071-.745.041-1.59-.443-1.97-.99-.378-.548-.51-1.094-.602-1.691-.066-.422-.046-.627-.047-1.064-.001-.438.006-.99.02-1.622.027-1.266.079-2.852.142-4.42.063-1.566.136-3.11.208-4.292.035-.59.07-1.09.104-1.47.018-.19.034-.349.055-.498.01-.074.02-.144.042-.241.022-.097-.093-.121.277-.634.335-.466.55-.483.676-.536.126-.052.196-.069.254-.083.117-.028.182-.036.249-.045.133-.018.253-.027.398-.037.29-.019.66-.034 1.111-.046a120.23 120.23 0 0 1 3.424-.035c3.178.008 5.083-.02 6.23-.118 1.149-.099 1.411-.206 1.79-.427.677-.393.699-.538.711-.757.012-.219-.155-.87-.89-1.84-.447-.587-.768-1.029-1.012-1.566-.244-.536-.339-1.108-.373-1.629.14-1.714.546-2.992 1.887-3.864.497-.324.837-.403 1.306-.542.47-.139.993-.263 1.515-.35 3.048-.513 5.963.21 7.296 2.522.422.733.628 1.699.446 2.582-.182.883-.627 1.636-1.225 2.45-.927 1.26-1.15 2.518-1.177 2.352.024.148.036.22.355.433.319.214.956.47 1.893.639-.233-.042.123.008.45.022.329.015.778.03 1.301.045 1.048.03 2.4.057 3.747.078 1.349.021 2.696.036 3.737.038.52.002.965 0 1.288-.004.322-.005.711-.055.41-.006.616-.1 1.248.284 1.466.54.22.255.267.416.312.541.09.25.105.39.128.551.045.322.066.68.085 1.162.036.964.045 2.39.032 4.392-.02 3.371.11 5.492.382 6.596.27 1.104.301 1.035.813 1.199.294.094.247.098.528.003.28-.096.859-.411 1.759-1.04.9-.63 1.695-1.098 2.665-1.24.97-.14 1.932.182 2.706.644 1.534.915 2.187 2.695 2.414 4.921.23 2.25-.15 4.374-1.411 5.906-.614.746-1.63 1.311-2.64 1.476-.54.088-1.267.157-1.953-.093-.686-.25-1.165-.61-2.036-1.201-.995-.675-1.627-.946-1.845-.984-.218-.039-.125-.082-.491.199-.44.336-.527.368-.729 1.617-.201 1.249-.283 3.51-.301 7.324a70.578 70.578 0 0 1-.07 2.968c-.02.397-.042.729-.07 1.003a4.426 4.426 0 0 1-.056.4 1.924 1.924 0 0 1-.068.269c-.04.123.022.295-.479.73-.46.4-.681.392-.93.452-.248.06-.487.09-.763.089Zm-.035-3.119h.05c-.014 0 .028-.004.02-.002-.004 0-.016-.017-.07.002Zm-.714-.001c.035-.727.061-1.725.066-2.806.019-3.845.074-6.145.342-7.805.267-1.661.982-2.886 1.91-3.597.763-.585 1.878-.98 2.929-.795 1.05.186 1.933.714 3.055 1.475 1.308.943 1.881 1.146 2.47.417.484-.587.885-1.954.716-3.607-.186-1.83-.555-2.349-.908-2.56-.455-.27-.51-.257-.66-.235-.151.022-.581.188-1.327.709-.982.686-1.72 1.157-2.542 1.436a4.106 4.106 0 0 1-2.483.015c-1.348-.431-2.477-1.738-2.891-3.426-.415-1.688-.493-3.915-.471-7.358.012-1.883 0-3.167-.03-4.04l-.581.002a309.607 309.607 0 0 1-3.777-.038 312.261 312.261 0 0 1-3.787-.08c-.534-.014-.994-.03-1.352-.046-.358-.016-.465.003-.862-.069-1.204-.216-2.225-.545-3.078-1.117-.853-.571-1.527-1.484-1.697-2.517-.288-1.75.577-3.123 1.742-4.707.468-.635.648-1.057.683-1.23.036-.174.05-.147-.093-.396-.46-.799-1.785-1.39-4.076-1.005-.38.064-.808.165-1.146.265-.339.1-.663.277-.491.165-.64.505-.673.935-.377 1.59.063.139.248.433.656.97.962 1.268 1.6 2.512 1.52 3.903-.078 1.392-1.045 2.573-2.256 3.277-.759.44-1.713.72-3.09.837-1.378.119-3.309.138-6.506.13-1.29-.004-2.475.01-3.33.033l-.093.004c-.015.224-.03.384-.046.657-.07 1.148-.143 2.68-.205 4.23a244.751 244.751 0 0 0-.14 4.36c-.012.57-.018 1.042-.018 1.427.075-.076.141-.128.219-.22.364-.426.748-.83 1.104-1.168.356-.338.467-.564 1.169-.867 1.326-.573 2.626-.248 3.8.29 1.175.537 2.275 1.38 3.054 2.527 1.371 2.015 1.543 4.505.92 6.656-.622 2.15-2.116 4.129-4.417 4.735-1.756.462-3.6-.15-5.227-1.512-.184-.153-.33-.248-.488-.358-.003.056-.014.098-.016.154-.06 1.244-.03 4.435.047 7.239.039 1.401.088 2.723.14 3.685.007.121.014.174.02.283.237.008.409.016.7.022 1.174.023 2.738.033 4.316.03 1.578-.004 3.172-.02 4.41-.048.444-.01.768-.023 1.099-.036-.71-.729-1.265-1.476-1.56-2.363-.327-.986-.258-2.047.035-3.031.368-1.236 1.291-2.292 2.476-2.85 1.185-.558 2.57-.73 4.213-.695 1.326.028 2.502.248 3.514.773s1.83 1.414 2.218 2.485c.28.773.389 1.662.2 2.51-.187.848-.6 1.598-1.157 2.412-.171.25-.287.473-.405.695.064.006.036.005.106.01.383.03.901.059 1.51.082 1.22.048 2.81.078 4.516.081l5.708.01ZM2.52 46.487c-.078-.021-.106-.01-.125-.009.02.003.087.006.125.009Zm.873-12.37c.028-.06.018-.074.013-.057l-.013.057Zm.213-20.651c.024-.079.012-.106.013-.124l-.013.123Z"/></symbol><symbol id="icon-methodique" viewBox="0 0 50 50"><g clip-path="url(#a)" stroke-width="4.775" stroke-miterlimit="10"><path d="M7.104 11.083a3.98 3.98 0 1 0 0-7.958 3.98 3.98 0 0 0 0 7.958Zm17.896 0a3.98 3.98 0 1 0 0-7.958 3.98 3.98 0 0 0 0 7.958Zm17.896 0a3.98 3.98 0 1 0 0-7.958 3.98 3.98 0 0 0 0 7.958ZM7.104 28.98a3.98 3.98 0 1 0 0-7.96 3.98 3.98 0 0 0 0 7.96Zm17.896 0a3.98 3.98 0 1 0 0-7.96 3.98 3.98 0 0 0 0 7.96Zm17.896 0a3.98 3.98 0 1 0 0-7.96 3.98 3.98 0 0 0 0 7.96ZM7.104 46.875a3.98 3.98 0 1 0 0-7.958 3.98 3.98 0 0 0 0 7.958Zm17.896 0a3.98 3.98 0 1 0 0-7.958 3.98 3.98 0 0 0 0 7.958Zm17.896 0a3.98 3.98 0 1 0 0-7.958 3.98 3.98 0 0 0 0 7.958ZM22.188 22.188 9.916 9.917m15.084 29v-9.938M38.917 7.104h-9.938m-7.959 0h-9.937"/></g><defs><clipPath id="a"><path d="M0 0h50v50H0z"/></clipPath></defs></symbol><symbol id="icon-modelisation" viewBox="0 0 50 54"><path fill-rule="evenodd" clip-rule="evenodd" d="m46.305 44.123-34.729 9.852L4.68 32.547 0 4.469 33.005.035 50 13.09l-3.695 31.034Zm-34.236-3.694 10.591-2.71-2.71-5.172-9.851 2.217 1.97 5.665ZM8.867 25.404l10.345-2.216 2.71 4.925 11.576-2.463-7.143-8.867-19.458 3.45 1.97 5.17ZM32.266 3.237 3.449 6.93l1.97 4.434 20.69-2.956 7.635 7.636 12.069-1.97L32.266 3.236Z"/></symbol><symbol id="icon-solution" viewBox="0 0 50 61"><path d="M22.126.62C10.452 1.72 1.04 9.42.088 19.02c-.715 7 2.978 13.4 8.934 17.5 1.787 1.2 2.86 3 2.86 4.9v.1c0 2.8 2.739 5.1 6.193 5.1h13.819c3.454 0 6.194-2.3 6.194-5.1v-.1c0-1.9 1.072-3.7 2.859-4.9 5.48-3.8 9.053-9.4 9.053-15.7 0-12-12.746-21.5-27.874-20.2Zm13.579 51.9H14.264c-1.31 0-2.383.9-2.383 2 0 3.3 3.216 6 7.147 6h11.913c3.93 0 7.147-2.7 7.147-6 0-1.1-1.072-2-2.383-2Z"/></symbol><symbol id="icon-web" viewBox="0 0 50 51"><path d="M0 24.583v-.069c.627-8.089 3.557-14.156 8.647-17.992C13.667 2.617 19.107.734 25.035.734 31.24.664 37.029 2.755 42.19 6.939 47.42 11.054 50 17.191 50 25.14v.489c0 8.02-2.58 14.015-7.81 18.13-5.23 4.184-11.019 6.277-17.225 6.277h-.279c-6.067-.069-11.645-2.162-16.805-6.346C2.721 39.574.071 33.228.002 24.58L0 24.583Zm23.5-10.947V2.616h-1.674c-.348.42-.627.907-.906 1.326-.28.42-.558.837-.837 1.326-.279.42-.627.977-.837 1.395-.279.42-.488.836-.698 1.325-.42.698-.768 1.395-1.047 2.022a13.763 13.763 0 0 0-.837 1.814c.42.279.906.627 1.464.837.627.21 1.257.42 1.884.558.698.14 1.325.21 1.883.279.627.069 1.185.14 1.604.14v-.002Zm2.93-11.017v10.948c.347 0 .767.069 1.184 0 .42 0 .906-.07 1.326-.14a23.93 23.93 0 0 0 2.372-.559c.767-.279 1.463-.627 1.952-1.046-.837-2.022-1.743-3.626-2.65-5.162a20.037 20.037 0 0 0-3.069-3.974v-.07h-1.116v.003Zm-7.532.627v-.069c-.489.21-.977.558-1.535.768-.489.21-1.116.488-1.604.767a31.606 31.606 0 0 0-2.93 1.674 25.38 25.38 0 0 0-2.58 2.022c.279.278.627.557.906.767.279.21.627.489.977.768.28.14.627.348.978.627.348.21.767.489 1.185.767.557-1.256 1.115-2.58 1.814-3.766a33.347 33.347 0 0 1 2.231-3.488c.07-.14.14-.279.28-.42.068-.069.14-.276.278-.417Zm21.337 5.16v-.07c-1.743-1.325-3.278-2.441-4.81-3.137-1.534-.696-3.069-1.395-4.464-1.953 1.116 1.116 2.093 2.51 2.72 3.836.699 1.395 1.395 2.859 1.953 4.253.279-.14.627-.279 1.047-.558.348-.21.836-.42 1.256-.627.42-.279.767-.558 1.185-.837.42-.348.837-.627 1.115-.905l-.002-.003Zm-1.185 15.55h8.02c0-2.58-.558-5.02-1.604-7.53-.978-2.442-2.372-4.464-4.115-6.206v-.07a5.05 5.05 0 0 1-1.326 1.395c-.557.348-1.046.627-1.604.906-.348.21-.698.489-1.047.627-.348.21-.836.348-1.184.558.279.558.557 1.185.836 1.743.21.627.558 1.325.699 1.952.42 1.116.698 2.3.977 3.488.21 1.046.348 2.162.348 3.137Zm-25.242-10.32v-.07c-.558-.278-1.185-.488-1.673-.767-.49-.348-.978-.698-1.395-.977a6.868 6.868 0 0 1-1.185-.768 10.783 10.783 0 0 1-.906-.837c-1.814 1.743-3.137 3.695-3.974 5.998-.906 2.301-1.535 4.883-1.814 7.672h8.577c0-1.952.28-3.836.768-5.72a18.64 18.64 0 0 1 1.602-4.531ZM23.5 23.887v-8.02c-.557.07-1.256.07-1.883 0-.698-.069-1.395-.279-2.022-.488-.558-.141-1.256-.28-1.814-.49a6.528 6.528 0 0 1-1.743-.698c-.42.699-.767 1.536-1.046 2.442-.348.836-.558 1.742-.768 2.58-.14.836-.21 1.742-.279 2.51-.069.767-.14 1.535-.14 2.162h9.693l.002.002Zm2.93-7.88v7.88h10.32c0-.42 0-.906-.069-1.464-.14-.488-.21-1.115-.278-1.673-.21-.837-.42-1.743-.699-2.58-.279-.768-.558-1.535-.906-2.162-.14-.348-.279-.768-.42-1.047-.21-.348-.419-.558-.557-.767-.768.557-1.814.906-3.068 1.185-1.185.279-2.58.557-3.836.627h-.489l.002.002Zm-14.993 10.18H2.858c0 1.186.21 2.511.558 4.115.348 1.674 1.047 3.21 1.815 4.883.348.837.767 1.673 1.184 2.51a47.702 47.702 0 0 0 1.605 2.372c.42-.279.837-.488 1.185-.698.42-.21.906-.489 1.325-.699.489-.21.978-.42 1.535-.698.49-.21 1.116-.489 1.743-.768-.558-1.742-1.185-3.416-1.604-5.3-.489-1.814-.768-3.625-.768-5.647v-.07Zm12.063 8.16v-8.158h-9.693c0 .558.07 1.394.21 2.231.069.837.279 1.743.42 2.651.278.977.488 1.953.767 2.79.279.836.558 1.535.837 2.162a28.792 28.792 0 0 1 3.347-1.047c.906-.279 1.743-.489 2.58-.558h.767c.279-.069.558-.069.768-.069l-.003-.002Zm2.93-8.158v8.089c.489.069 1.047.14 1.605.21.627.069 1.394.21 2.021.347l1.047.21c.348.14.767.21 1.116.28.42.14.836.209 1.256.347.348.14.698.21.977.348.906-2.3 1.464-4.183 1.815-5.788.348-1.535.488-2.858.488-3.974v-.07H26.43Zm20.641.069v-.07h-8.02v.42c-.069 1.326-.279 2.859-.558 4.463-.278 1.535-.905 3.347-1.742 5.579 1.115.558 2.162 1.115 2.999 1.673a14.672 14.672 0 0 1 2.162 1.743c1.185-1.185 2.231-2.79 3.137-4.882a24.68 24.68 0 0 0 1.884-6.347c.069-.42.069-.836.14-1.256v-1.325l-.002.002ZM23.5 47.456V36.577a50.047 50.047 0 0 0-4.325.906c-1.116.28-1.953.558-2.51.837a36.16 36.16 0 0 0 1.256 2.79c.42.767.906 1.604 1.325 2.3.14.279.42.558.627.906.21.279.348.627.558.906.21.348.42.767.627 1.185.28.348.489.767.768 1.046l1.673.003Zm2.93 0h1.604a7.9 7.9 0 0 0 1.742-1.953c.558-.767 1.185-1.673 1.605-2.441.488-.906.977-1.743 1.395-2.58.417-.837.767-1.604 1.046-2.162-.768-.279-1.814-.558-2.859-.837-1.044-.279-2.51-.558-4.532-.836v10.809h-.002Zm13.805-5.717v-.07c-.14-.21-.42-.488-.627-.698a5.074 5.074 0 0 0-.906-.698 6.665 6.665 0 0 0-1.046-.628c-.42-.207-.978-.488-1.464-.767-.28.558-.768 1.535-1.464 2.858-.627 1.326-1.743 2.93-3.137 4.673 1.742-.279 3.278-.906 4.672-1.743 1.535-.767 2.859-1.814 3.974-2.93l-.002.003Zm-25.94-2.232v-.069c-.489.279-1.257.627-2.022.977-.837.349-1.743.768-2.58 1.326.49.42.978.837 1.395 1.116.42.348.906.627 1.326.906.767.488 1.673.977 2.58 1.394.905.418 2.02.837 3.415 1.257-.488-.558-.836-1.257-1.184-1.815-.349-.557-.768-1.115-1.116-1.673-.348-.558-.627-1.185-.906-1.743-.348-.558-.627-1.116-.906-1.674l-.002-.002Z"/></symbol><symbol id="icon-arrow-left" viewBox="0 0 24 24"><path fill-rule="evenodd" clip-rule="evenodd" d="M14.03 7.47a.75.75 0 0 1 0 1.06L10.56 12l3.47 3.47a.75.75 0 1 1-1.06 1.06l-4-4a.75.75 0 0 1 0-1.06l4-4a.75.75 0 0 1 1.06 0Z"/></symbol><symbol id="icon-cv" viewBox="0 0 47 61"><path d="M19.148 33.822a2.03 2.03 0 0 1-.352.606c-.144.172-.32.305-.527.4a1.808 1.808 0 0 1-.76.143c-.416 0-.761-.09-1.038-.27a2.007 2.007 0 0 1-.663-.72 3.469 3.469 0 0 1-.36-1.007 5.661 5.661 0 0 1-.112-1.135c0-.385.036-.762.112-1.136.075-.374.195-.71.36-1.007.165-.3.386-.538.663-.72.277-.182.623-.27 1.039-.27.36 0 .657.068.887.205.229.14.412.3.55.48.14.183.235.364.288.552.054.185.091.333.112.44h3.42c-.15-1.439-.652-2.55-1.511-3.332-.858-.784-2.075-1.182-3.65-1.192-.885 0-1.682.142-2.39.431a5.238 5.238 0 0 0-1.821 1.215 5.308 5.308 0 0 0-1.167 1.885c-.271.734-.408 1.552-.408 2.445 0 .84.129 1.629.383 2.357.256.731.633 1.36 1.128 1.894a5.313 5.313 0 0 0 1.812 1.263c.714.307 1.534.464 2.463.464.83 0 1.57-.14 2.22-.416a5.02 5.02 0 0 0 1.637-1.094 4.711 4.711 0 0 0 1.007-1.526 4.506 4.506 0 0 0 .345-1.709h-3.453c-.052.267-.122.52-.214.754Zm9.404-.769h-.032l-1.87-6.919h-3.547l3.403 11.41h3.931l3.565-11.41H30.39l-1.838 6.92Z"/><path d="M37.622.013H0v60h46.207V8.337L37.622.013Zm4.59 56.003H3.995V4.008h31.568v6.338h6.648v45.67Z"/></symbol><symbol id="icon-mailto" viewBox="0 0 46 34"><path fill-rule="evenodd" clip-rule="evenodd" d="M2.375.125.5 2v30l1.875 1.875h41.25L45.5 32V2L43.625.125H2.375ZM4.25 6.239v23.886h37.5V6.238L23 23.284 4.25 6.239Zm34.525-2.364H7.225L23 18.216 38.775 3.875Z"/></symbol><symbol id="icon-phone" viewBox="0 0 53 53"><path fill-rule="evenodd" clip-rule="evenodd" d="M39.169 51.811c-5.05-1.265-15.39-4.832-24.762-14.205C5.034 28.233 1.467 17.894.202 12.844c-.727-2.902.582-5.703 2.802-7.289l5.82-4.157a7.5 7.5 0 0 1 10.527 1.834l3.664 5.293a5 5 0 0 1-1.205 6.914l-2.922 2.087c.443 1.692 1.818 5.166 6.125 9.473 4.308 4.308 7.782 5.683 9.473 6.125l2.087-2.922a5 5 0 0 1 6.915-1.204l5.293 3.664a7.5 7.5 0 0 1 1.834 10.526l-4.157 5.82c-1.587 2.22-4.387 3.53-7.29 2.803Zm-21.227-17.74c8.524 8.523 17.93 11.76 22.442 12.89.66.165 1.456-.091 2.005-.859l4.157-5.82a2.5 2.5 0 0 0-.611-3.509l-5.293-3.664-2.24 3.135c-.915 1.282-2.608 2.287-4.579 1.862-2.46-.531-7.007-2.233-12.345-7.571-5.338-5.338-7.04-9.885-7.57-12.345-.426-1.971.579-3.664 1.86-4.58l3.136-2.24-3.664-5.292a2.5 2.5 0 0 0-3.509-.612l-5.82 4.158c-.768.548-1.024 1.345-.86 2.005C6.183 16.14 9.42 25.547 17.943 34.07Z"/></symbol><symbol id="icon-external" viewBox="0 0 24 24"><path d="M10.409 8.434a.75.75 0 1 1 0-1.5h5.657a.75.75 0 0 1 .75.75v5.657a.75.75 0 0 1-1.5 0V9.495l-6.852 6.851a.75.75 0 0 1-1.06-1.06l6.851-6.852H10.41Z"/></symbol><symbol id="icon-blender" viewBox="0 0 50 42"><path d="M26.062 23.53c.096-1.668.913-3.138 2.146-4.18a7.134 7.134 0 0 1 4.609-1.646c1.77 0 3.398.625 4.606 1.646 1.233 1.042 2.048 2.512 2.142 4.177.093 1.715-.594 3.304-1.803 4.485a7.06 7.06 0 0 1-4.945 1.955 7.068 7.068 0 0 1-4.95-1.955c-1.209-1.18-1.898-2.77-1.805-4.483Zm-10.75 3.368c.013.654.221 1.92.534 2.912a15.36 15.36 0 0 0 3.319 5.744 17.14 17.14 0 0 0 5.806 4.169 18.64 18.64 0 0 0 7.625 1.583 18.69 18.69 0 0 0 7.619-1.608 17.26 17.26 0 0 0 5.802-4.188 15.473 15.473 0 0 0 3.316-5.754c.65-2.069.828-4.257.521-6.404a14.84 14.84 0 0 0-2.117-5.79 16.174 16.174 0 0 0-3.858-4.256h.004L28.263 1.312l-.042-.03c-1.025-.788-2.748-.784-3.875.003-1.14.796-1.269 2.115-.256 2.948l-.003.002L30.6 9.533l-19.854.021h-.027c-1.642.002-3.22 1.08-3.532 2.442-.32 1.385.792 2.535 2.5 2.541v.005l10.063-.021L1.792 28.306l-.071.052C.027 29.654-.52 31.812.548 33.177c1.083 1.39 3.385 1.392 5.098.008l9.8-8.018s-.146 1.083-.134 1.73ZM40.5 30.525c-2.02 2.058-4.846 3.225-7.906 3.23-3.063.007-5.89-1.15-7.91-3.205a9.395 9.395 0 0 1-2.16-3.38 8.922 8.922 0 0 1 .588-7.33 9.797 9.797 0 0 1 2.403-2.857c1.962-1.6 4.46-2.464 7.075-2.469 2.616-.004 5.114.855 7.079 2.448 1 .815 1.812 1.78 2.4 2.848a8.919 8.919 0 0 1 1.087 3.555 8.825 8.825 0 0 1-.498 3.772 9.463 9.463 0 0 1-2.158 3.388Z"/></symbol><symbol id="icon-davinci" viewBox="0 0 50 51"><path d="M36.71.71 12.452.72c-2.854 0-5.742.718-7.837 2.312A10.26 10.26 0 0 0 1.26 7.204C.485 8.898 0 11.169 0 13.108l.025 25.417c.004 3.341.998 6.369 3.044 8.566 2.05 2.2 5.129 3.507 9.023 3.523l23.025.096c2.625.01 6.448-.075 8.964-1.487 2.24-1.26 4.219-3.242 5.202-6.217.58-1.75.72-4.342.717-6.556l-.044-23.188c-.004-1.85-.312-4.214-1.14-6.112-.885-2.034-2.46-3.781-4.837-5.052C42.402 1.252 39.837.71 36.71.71Zm0 1.938c2.871 0 5.288.614 6.334 1.177 2.035 1.09 3.216 2.429 3.935 4.083.656 1.502.98 3.735.986 5.358l.037 23.188c.004 2.11-.202 4.702-.62 5.958-.826 2.504-2.388 4.054-4.299 5.13-1.695.951-5.441 1.235-7.958 1.224l-23.02-.091c-3.453-.015-5.9-1.113-7.555-2.888-1.65-1.773-2.525-4.291-2.525-7.26l.056-25.421c0-1.727.409-3.806.988-5.077.719-1.577 1.562-2.515 2.843-3.488 1.557-1.185 4.23-1.81 6.755-1.81l24.043-.083Zm-11.79 7.13c-4.117.186-6.675 3.455-6.696 6.855.04 3.006 3.406 7.252 6.008 9.438.25.206.321.227.688.375.129.052.412-.098.681-.282.75-.51 2.069-1.973 3.433-3.62a15.973 15.973 0 0 0 2.148-3.507c.852-1.854.544-3.331.49-3.933a8.298 8.298 0 0 0-2.063-3.525 7 7 0 0 0-4.69-1.8Zm8.691 16.505a21.22 21.22 0 0 0-6.758 1.27c-.312.122-.542.21-.78.355-.118.075-.228.281-.218.608.036.903.604 2.663 1.3 4.73.8 2.364 2.221 4.729 3.842 5.708a6.73 6.73 0 0 0 5.27.712c1.734-.506 3.324-1.808 4.088-3.22 2.054-3.788.396-7.392-2.335-9.202-.931-.617-2.36-.928-3.938-.959-.154 0-.312-.004-.47-.002Zm-17.566.08a12.9 12.9 0 0 0-1.567.097c-1.242.163-1.942.569-2.687 1.063a6.619 6.619 0 0 0-2.844 4.123c-.156 1.15-.18 2.193.069 3.14.902 2.893 2.762 4.628 5.93 5.108 1.326.058 2.855-.132 4.147-.938 2.643-1.63 4.333-6.604 5.025-9.88.11-.366.073-.743-.027-.874-.01-.14-.092-.236-.396-.381-.83-.4-2.75-.87-4.948-1.25a16.004 16.004 0 0 0-2.702-.209Z"/></symbol><symbol id="icon-inkscape" viewBox="0 0 50 51"><path d="M15.971 31.365c.494.306 7.954 1.822 9.777 2.125.631.133.183.783-.687 1.222-1.965.523-11.494-3.347-9.09-3.347ZM27.736 3.732l7.302 7.416c.693.709.683 2.08.295 2.473l-3.624-2.9-.713 4.294-3.031-1.598-4.85 3.062-1.606-6.458-2.607 4.508h-3.985c-1.625 0-1.814-2.062-.34-3.537 2.578-2.781 5.536-5.617 7.144-7.26 1.617-1.652 4.431-1.604 6.015 0Zm-7.348-1.327L1.93 21.292c-6.235 7.723 4.246 6.825 8.737 9.048 1.613 1.648-6.177 2.864-4.564 4.512 1.61 1.648 9.745 3.175 11.36 4.82 1.61 1.649-3.3 3.397-1.688 5.042 1.61 1.65 5.34.088 6.038 3.892.496 2.716 6.716 1.166 9.758-1.058 1.613-1.648-3.083-1.494-1.47-3.142 4.005-4.098 7.739-1.487 9.11-5.596.677-2.029-5.9-3.127-4.286-4.775 4.638-2.708 20.664-4.47 13.058-12.074L28.854 2.405c-2.34-2.246-6.247-2.271-8.466 0ZM41.59 38.81c0 .938 6.904 1.552 6.904-.22-.984-2.846-6.088-2.655-6.904.22Zm-31.1 4.98c1.633 1.414 4.16-.353 4.917-2.326-1.584-2.104-7.515.078-4.917 2.325Zm30.233-3.055c-2.106 1.892.237 3.809 2.315 2.588.462-.47-.015-2.117-2.315-2.588Z"/></symbol><symbol id="icon-vsCode" viewBox="0 0 50 50"><path d="M48.231 5.267 37.937.31a3.113 3.113 0 0 0-3.553.605L.68 31.646a2.084 2.084 0 0 0 0 3.078l2.753 2.499a2.084 2.084 0 0 0 2.658.12L46.681 6.55A2.069 2.069 0 0 1 50 8.201v-.12a3.123 3.123 0 0 0-1.769-2.814Z"/><path d="M48.231 44.443 37.937 49.4a3.113 3.113 0 0 1-3.553-.604L.68 18.064a2.084 2.084 0 0 1 0-3.078l2.753-2.498a2.084 2.084 0 0 1 2.658-.12l40.59 30.791A2.068 2.068 0 0 0 50 41.51v.12a3.123 3.123 0 0 1-1.769 2.813Z"/><path d="M37.937 49.405a3.113 3.113 0 0 1-3.553-.604 1.828 1.828 0 0 0 3.123-1.294V2.204A1.83 1.83 0 0 0 34.384.909a3.113 3.113 0 0 1 3.553-.604l10.294 4.952A3.124 3.124 0 0 1 50 8.07v33.565a3.123 3.123 0 0 1-1.769 2.813l-10.294 4.957Z"/><path d="M35.434 49.5a3.107 3.107 0 0 0 2.498-.095l10.289-4.952a3.123 3.123 0 0 0 1.769-2.813V8.07a3.123 3.123 0 0 0-1.769-2.813L37.932.305a3.108 3.108 0 0 0-3.548.604L14.691 18.9l-8.58-6.497a2.078 2.078 0 0 0-2.658.12L.7 15.021a2.083 2.083 0 0 0 0 3.078l7.42 6.756-7.44 6.786a2.084 2.084 0 0 0 0 3.078l2.753 2.498a2.078 2.078 0 0 0 2.658.12l8.58-6.496 19.693 17.99c.307.293.671.521 1.07.67Zm2.048-35.978-14.94 11.333 14.95 11.343-.01-22.676Z" opacity=".25"/><defs><linearGradient id="a" x1="24.985" y1="0" x2="24.985" y2="49.71" gradientUnits="userSpaceOnUse"><stop stop-color="#fff"/><stop offset="1" stop-color="#fff" stop-opacity="0"/></linearGradient></defs></symbol><symbol id="icon-webstorm" viewBox="0 0 50 51"><path d="M0 .71v50h50v-50H0Zm37.269 6.02c3.008 0 5.556.925 7.64 2.662l-2.315 3.473c-1.852-1.273-3.588-2.083-5.325-2.083-1.738 0-2.663.81-2.663 1.852v.117c0 1.39.925 1.852 4.398 2.777 4.167 1.158 6.481 2.662 6.481 6.25v.116c0 4.167-3.125 6.482-7.523 6.482-3.125-.117-6.25-1.273-8.68-3.473l2.662-3.242c1.852 1.504 3.819 2.546 6.133 2.546 1.852 0 2.894-.694 2.894-1.967v-.116c0-1.159-.694-1.736-4.167-2.663-4.166-1.041-6.712-2.2-6.712-6.367v-.116c0-3.819 3.008-6.25 7.175-6.25l.002.002Zm-33.565.46H8.45l3.125 12.038L15.163 7.19h3.472l3.473 12.038L25.233 7.19h4.86l-5.901 20.717h-3.936L16.9 15.871l-3.473 12.037H9.608L3.706 7.191h-.002Zm1.042 34.144h18.75v3.125H4.746v-3.125Z"/></symbol><symbol id="icon-githubLogo" viewBox="0 0 50 50"><path d="M25 .633c-13.813 0-25 11.194-25 25C0 36.681 7.162 46.05 17.094 49.352c1.25.235 1.708-.538 1.708-1.202 0-.594-.02-2.167-.031-4.25-6.954 1.508-8.421-3.354-8.421-3.354-1.137-2.886-2.781-3.657-2.781-3.657-2.265-1.55.175-1.518.175-1.518 2.51.175 3.829 2.575 3.829 2.575 2.23 3.823 5.852 2.718 7.281 2.079.225-1.617.869-2.719 1.584-3.344-5.553-.625-11.388-2.775-11.388-12.354 0-2.73.969-4.959 2.573-6.709-.281-.63-1.125-3.172.219-6.616 0 0 2.093-.671 6.875 2.562 2-.556 4.125-.83 6.25-.843 2.125.012 4.25.287 6.25.843 4.75-3.233 6.843-2.562 6.843-2.562 1.344 3.444.5 5.985.25 6.617 1.594 1.75 2.563 3.979 2.563 6.708 0 9.604-5.844 11.719-11.406 12.333.875.75 1.687 2.284 1.687 4.625 0 3.346-.031 6.034-.031 6.846 0 .656.437 1.438 1.719 1.188C42.844 46.038 50 36.663 50 25.633c0-13.806-11.194-25-25-25Z"/></symbol><symbol id="icon-instaLogo" viewBox="0 0 50 51"><path d="M14.646.189c-2.66.125-4.476.55-6.065 1.173-1.643.641-3.036 1.5-4.422 2.892-1.386 1.39-2.24 2.785-2.875 4.43-.616 1.592-1.033 3.41-1.15 6.072-.118 2.661-.144 3.517-.13 10.306.012 6.789.042 7.64.171 10.307.127 2.66.55 4.475 1.174 6.064.642 1.643 1.5 3.036 2.892 4.422 1.391 1.387 2.784 2.239 4.434 2.875 1.59.615 3.409 1.034 6.07 1.15 2.66.117 3.517.144 10.304.131 6.787-.013 7.642-.043 10.308-.17 2.667-.126 4.473-.552 6.062-1.173 1.644-.643 3.037-1.5 4.423-2.892 1.385-1.392 2.238-2.787 2.874-4.434.616-1.59 1.034-3.408 1.15-6.068.117-2.668.144-3.52.131-10.308-.013-6.788-.044-7.64-.17-10.305-.127-2.666-.55-4.477-1.174-6.066-.642-1.644-1.5-3.035-2.89-4.423-1.392-1.387-2.788-2.24-4.434-2.874C39.738.682 37.92.263 35.259.148 32.6.033 31.742.003 24.952.017c-6.79.013-7.64.042-10.306.172Zm.292 45.194c-2.437-.106-3.76-.511-4.643-.85-1.168-.45-2-.994-2.879-1.865-.88-.87-1.419-1.705-1.875-2.87-.342-.883-.755-2.205-.869-4.642-.124-2.635-.15-3.426-.165-10.1-.014-6.675.012-7.465.127-10.1.104-2.436.512-3.76.85-4.643.45-1.169.992-2 1.865-2.878.872-.878 1.705-1.42 2.871-1.875.881-.344 2.203-.753 4.64-.87 2.636-.124 3.426-.15 10.1-.164 6.673-.015 7.465.01 10.103.127 2.435.106 3.76.51 4.642.85 1.168.45 2 .99 2.878 1.864.878.874 1.42 1.704 1.876 2.873.344.878.753 2.2.868 4.638.126 2.636.154 3.427.166 10.1.012 6.673-.011 7.465-.127 10.1-.106 2.437-.51 3.761-.85 4.644-.45 1.168-.992 2-1.865 2.878-.873.878-1.705 1.42-2.872 1.875-.88.344-2.203.754-4.638.87-2.636.124-3.426.15-10.102.165-6.676.014-7.464-.013-10.1-.127Zm20.38-33.73a3 3 0 1 0 6.001-.01 3 3 0 0 0-6 .01ZM12.165 25.038c.014 7.09 5.772 12.824 12.86 12.81 7.089-.013 12.827-5.77 12.814-12.86-.014-7.09-5.773-12.826-12.863-12.812-7.09.014-12.825 5.773-12.811 12.862Zm4.503-.01a8.333 8.333 0 1 1 16.666-.032 8.333 8.333 0 0 1-16.666.033Z"/></symbol><symbol id="icon-linkinLogo" viewBox="0 0 50 51"><path d="M42.598 42.622h-7.404V31.02c0-2.767-.056-6.327-3.859-6.327-3.86 0-4.45 3.01-4.45 6.123v11.806h-7.404V18.764h7.113v3.252h.096c.993-1.875 3.41-3.854 7.02-3.854 7.502 0 8.89 4.937 8.89 11.364l-.002 13.096ZM11.118 15.5a4.296 4.296 0 0 1-4.297-4.302A4.295 4.295 0 0 1 11.119 6.9a4.3 4.3 0 0 1 0 8.6Zm3.713 27.123H7.406V18.764h7.425v23.858ZM46.302.014H3.69C1.65.014 0 1.626 0 3.616v42.796c0 1.992 1.65 3.602 3.69 3.602h42.606c2.037 0 3.704-1.61 3.704-3.602V3.616c0-1.99-1.667-3.602-3.704-3.602h.006Z"/></symbol><symbol id="icon-sketchfabLogo" viewBox="0 0 50 51"><path d="M23.542.013A24.966 24.966 0 0 0 .076 22.93a28.452 28.452 0 0 0 0 4.167 24.966 24.966 0 0 0 23.522 22.918h2.805a25.095 25.095 0 0 0 23.543-23.668c.072-1.18.072-2.362 0-3.542A25.104 25.104 0 0 0 26.405.013h-2.863Zm7.709 13.563 6.23 3.625s-12.635 6.75-12.676 6.75c-.042 0-12.697-6.708-12.722-6.73l6.238-3.687 6.234-3.667 6.696 3.709Zm-13.492 10.68 5.158 2.841v12.334l-5.265-2.916-5.125-2.98v-12l5.232 2.72Zm19.71 3.275v6.092l-5.176 3.004-5.209 3.006v-12.55l5.186-2.802 5.208-2.823-.008 6.073Z"/></symbol><symbol id="icon-ytLogo" viewBox="0 0 50 36"><path d="M48.954 5.902a6.284 6.284 0 0 0-4.42-4.45C40.634.399 25 .399 25 .399S9.365.4 5.465 1.451a6.285 6.285 0 0 0-4.42 4.45C0 9.826 0 18.014 0 18.014s0 8.188 1.046 12.113a6.283 6.283 0 0 0 4.42 4.45C9.366 35.629 25 35.629 25 35.629s15.635 0 19.535-1.052a6.281 6.281 0 0 0 4.421-4.45C50 26.201 50 18.014 50 18.014s0-8.188-1.046-12.112ZM19.885 25.447V10.581l13.07 7.433-13.07 7.433Z"/></symbol><symbol id="icon-menu" viewBox="0 0 1792 1792"><path d="M1664 1344v128q0 26-19 45t-45 19H192q-26 0-45-19t-19-45v-128q0-26 19-45t45-19h1408q26 0 45 19t19 45zm0-512v128q0 26-19 45t-45 19H192q-26 0-45-19t-19-45V832q0-26 19-45t45-19h1408q26 0 45 19t19 45zm0-512v128q0 26-19 45t-45 19H192q-26 0-45-19t-19-45V320q0-26 19-45t45-19h1408q26 0 45 19t19 45z"/></symbol></svg>